<?xml version="1.0" encoding="UTF-8" standalone="no"?>
<svg
   width="512"
   height="512"
   viewBox="0 0 512 512"
   version="1.1"
   id="svg10"
   sodipodi:docname="icon.svg"
   inkscape:export-filename="repeat-multiple.svg"
   inkscape:export-xdpi="96"
   inkscape:export-ydpi="96"
   xmlns:inkscape="http://www.inkscape.org/namespaces/inkscape"
   xmlns:sodipodi="http://sodipodi.sourceforge.net/DTD/sodipodi-0.dtd"
   xmlns="http://www.w3.org/2000/svg"
   xmlns:svg="http://www.w3.org/2000/svg">
  <defs
     id="defs14" />
  <sodipodi:namedview
     id="namedview12"
     pagecolor="#ffffff"
     bordercolor="#000000"
     borderopacity="0.25"
     inkscape:showpageshadow="2"
     inkscape:pageopacity="0.0"
     inkscape:pagecheckerboard="0"
     inkscape:deskcolor="#d1d1d1"
     showgrid="false" />
  <g
     id="g1050"
     transform="translate(-22.988323,0.9686907)">
    <polyline
       points="320 120 368 168 320 216"
       style="fill:none;stroke:#000000;stroke-width:32px;stroke-linecap:round;stroke-linejoin:round"
       id="polyline2" />
    <path
       d="m 352,168 -193.98985,0.86633 C 102.23976,166.09955 63.626274,205.1902 64,248 v 16"
       style="fill:none;stroke:#000000;stroke-width:32px;stroke-linecap:round;stroke-linejoin:round"
       id="path4"
       sodipodi:nodetypes="cccc" />
    <path
       d="m 273.81388,213.53976 -57.83417,-1.26904 c -71.40714,0.26217 -111.00409,3.72635 -107.53639,49.04907"
       style="opacity:0.737936;fill:none;stroke:#000000;stroke-width:32px;stroke-linecap:round;stroke-linejoin:round"
       id="path4-7"
       sodipodi:nodetypes="ccc" />
    <polyline
       points="192 392 144 344 192 296"
       style="fill:none;stroke:#000000;stroke-width:32px;stroke-linecap:round;stroke-linejoin:round"
       id="polyline6" />
    <path
       d="m 160,344 h 208 a 80.24,80.24 0 0 0 80,-80 v -16"
       style="fill:none;stroke:#000000;stroke-width:32px;stroke-linecap:round;stroke-linejoin:round"
       id="path8" />
    <path
       d="m 233.06905,397.32319 120.20981,0.83925 c 102.67009,3.40547 132.48207,-48.31037 140.51438,-106.01353 l 2.45008,-21.24197"
       style="opacity:0.737936;fill:none;stroke:#000000;stroke-width:32px;stroke-linecap:round;stroke-linejoin:round"
       id="path8-6"
       sodipodi:nodetypes="cccc" />
  </g>
</svg>
