<svg width="14" height="14" viewBox="0 0 14 14" fill="none" xmlns="http://www.w3.org/2000/svg">
<path d="M0.935873 10.1148L0.14595 3.59163C0.0608419 2.8888 0.478727 2.22215 1.14839 1.99245L6.48138 0.163164C6.79005 0.0572841 7.12484 0.054955 7.43496 0.156531L12.8193 1.92009C13.5042 2.14443 13.9328 2.82418 13.8399 3.5389L12.984 10.124C12.921 10.609 12.6255 11.0328 12.1922 11.2596L7.65271 13.6358C7.21698 13.8639 6.69713 13.8639 6.2614 13.6358L1.72934 11.2635C1.29194 11.0345 0.995223 10.605 0.935873 10.1148Z" fill="url(#paint0_linear_1553_1365)"/>
<path d="M8.57113 8.75H5.2647C5.145 8.75 5.03675 8.82116 4.98929 8.93105L4.28679 10.5576C4.23933 10.6675 4.13108 10.7386 4.01138 10.7386H3.05661C2.83493 10.7386 2.68982 10.5065 2.78693 10.3072L6.6847 2.30888C6.79471 2.08314 7.11682 2.08439 7.22508 2.31098L11.0464 10.3093C11.1415 10.5084 10.9964 10.7386 10.7757 10.7386H9.89513C9.77932 10.7386 9.67386 10.672 9.62416 10.5674L8.84211 8.92126C8.79241 8.81666 8.68694 8.75 8.57113 8.75Z" fill="#F7F7F7"/>
<path d="M7.84269 7.47727H5.9765C5.83176 7.47727 5.73494 7.32828 5.79375 7.19602L6.69467 5.16968C6.76406 5.01361 6.98453 5.01072 7.05798 5.16492L8.02325 7.19126C8.08648 7.32398 7.98971 7.47727 7.84269 7.47727Z" fill="url(#paint1_linear_1553_1365)"/>
<defs>
<linearGradient id="paint0_linear_1553_1365" x1="-1.30385e-07" y1="7" x2="13.9141" y2="7" gradientUnits="userSpaceOnUse">
<stop offset="0.50135" stop-color="#E23237"/>
<stop offset="0.501399" stop-color="#B52E31"/>
</linearGradient>
<linearGradient id="paint1_linear_1553_1365" x1="5.23925" y1="7.47727" x2="8.50306" y2="7.47727" gradientUnits="userSpaceOnUse">
<stop offset="0.498108" stop-color="#E23237"/>
<stop offset="0.506258" stop-color="#B52E31"/>
</linearGradient>
</defs>
</svg>
