<svg width="14" height="14" viewBox="0 0 14 14" fill="none" xmlns="http://www.w3.org/2000/svg">
<path d="M6.16862 1.74549C6.16862 1.5549 6.32313 1.40039 6.51372 1.40039H7.48627C7.67686 1.40039 7.83137 1.5549 7.83137 1.74549V12.2553C7.83137 12.4459 7.67686 12.6004 7.48627 12.6004H6.51372C6.32313 12.6004 6.16862 12.4459 6.16862 12.2553V1.74549Z" fill="#0187FC"/>
<path d="M1.74512 7.83177C1.55453 7.83177 1.40002 7.67726 1.40002 7.48667V6.51412C1.40002 6.32353 1.55453 6.16902 1.74512 6.16902H12.2549C12.4455 6.16902 12.6 6.32353 12.6 6.51412V7.48667C12.6 7.67726 12.4455 7.83177 12.2549 7.83177H1.74512Z" fill="#0187FC"/>
<path d="M2.69634 3.87249C2.56157 3.73772 2.56157 3.51922 2.69634 3.38445L3.38404 2.69675C3.51881 2.56198 3.73731 2.56198 3.87208 2.69675L11.3036 10.1283C11.4384 10.2631 11.4384 10.4816 11.3036 10.6163L10.6159 11.304C10.4812 11.4388 10.2627 11.4388 10.1279 11.304L2.69634 3.87249Z" fill="#0187FC"/>
<path d="M3.94771 11.358C3.81532 11.4951 3.59685 11.4989 3.45975 11.3665L2.76015 10.6909C2.62305 10.5585 2.61924 10.34 2.75163 10.2029L10.0524 2.64283C10.1848 2.50573 10.4032 2.50191 10.5403 2.63431L11.2399 3.3099C11.377 3.4423 11.3808 3.66077 11.2484 3.79787L3.94771 11.358Z" fill="#0187FC"/>
</svg>
