<?xml version="1.0" encoding="UTF-8" standalone="no"?>
<svg
   width="28"
   height="20"
   viewBox="0 0 28 20"
   fill="none"
   version="1.1"
   id="svg4"
   xmlns="http://www.w3.org/2000/svg"
   xmlns:svg="http://www.w3.org/2000/svg">
  <defs
     id="defs4" />
  <path
     d="M 9.01715,19.9399 C 8.80494,19.8781 7.43525,19.0352 5.67502,17.8594 L 2.28509,15.5898 1.8916,15.2707 2.09073,14.8725 c 0,-0.7588 0.1934,-1.1964 0.52009,-1.8583 0.49115,-0.9952 1.12021,-1.6999 2.13604,-2.3928 l 0.81656,-0.5569 0.97913,0.7011 c 0.53852,0.3856 1.61407,1.1244 2.39012,1.6417 2.99693,1.9978 3.03993,2.0623 2.97863,4.4683 -0.0379,1.4859 -0.0499,1.5482 -0.3929,2.0349 -0.5598,0.7943 -1.69861,1.263 -2.50125,1.0294 z"
     fill="#FF69CD"
     id="path1"
     style="opacity:1;fill:#b5b6b8;fill-opacity:1" />
  <path
     d="M 1.72355,15.17 C 0.976915,14.5808 0.490095,13.8764 0.215369,12.9877 0.0375145,12.4124 -1.83121e-4,11.8897 6.67305e-7,10.0014 1.93539e-4,7.90078 0.021955,7.65883 0.264362,7.0606 0.409638,6.70207 0.658432,6.23292 0.817237,6.01804 1.31983,5.33798 5.15216,2.61097 8.16028,0.792886 9.13149,0.205893 9.36007,0.117148 10.0416,0.0624774 10.5347,0.0229225 11.0209,0.197783 11.3759,0.542324 l 0.0528,0.051314 C 12.1956,1.33805 12.3242,1.76764 12.3185,3.56627 12.3123,5.53225 12.2985,5.55218 9.58278,7.50394 8.38637,8.36379 6.79901,9.47239 6.05529,9.96749 4.17787,11.2173 3.79388,11.5487 3.18362,12.4459 c -0.59475,0.8744 -0.95274,2.0215 -0.85587,2.7425 0.03305,0.246 0.04343,0.4473 0.02305,0.4473 -0.02037,0 -0.30263,-0.2096 -0.62725,-0.4657 z"
     fill="#FF95B0"
     id="path2"
     style="opacity:1;fill:#989a9c;fill-opacity:1" />
  <path
     d="m 18.1633,19.9399 c 0.2123,-0.0618 1.582,-0.9047 3.3423,-2.0805 l 3.39,-2.2696 0.3935,-0.3191 -0.1992,-0.3982 c 0,-0.7588 -0.1934,-1.1964 -0.5201,-1.8583 -0.4911,-0.9952 -1.1202,-1.6999 -2.1361,-2.3928 l -0.8165,-0.5569 -0.9792,0.7011 c -0.5385,0.3856 -1.6141,1.1244 -2.3902,1.6417 -2.997,1.9978 -3.04,2.0623 -2.9787,4.4683 0.0379,1.4859 0.0499,1.5482 0.3929,2.0349 0.5598,0.7943 1.6987,1.263 2.5013,1.0294 z"
     fill="#FF69CD"
     id="path3"
     style="opacity:1;fill:#989a9c;fill-opacity:1" />
  <path
     d="m 25.4576,15.1697 c 0.7466,-0.5891 1.2334,-1.2935 1.5082,-2.1822 0.1778,-0.5753 0.2155,-1.0981 0.2154,-2.9863 C 27.181,7.90053 27.1592,7.65859 26.9168,7.06035 26.7715,6.70183 26.5227,6.23268 26.3639,6.0178 25.8613,5.33773 22.0289,2.61073 19.0207,0.792642 18.0494,0.205649 17.8209,0.116904 17.1393,0.0622332 16.6462,0.0226784 16.16,0.197541 15.805,0.542086 L 15.7522,0.593394 C 14.9852,1.3378 14.8566,1.7674 14.8623,3.56603 c 0.0063,1.96598 0.0201,1.98591 2.7358,3.93767 1.1965,0.85985 2.7839,1.96845 3.5276,2.46355 1.8775,1.24985 2.2615,1.58125 2.8718,2.47845 0.5947,0.8744 0.9527,2.0215 0.8558,2.7424 -0.033,0.2461 -0.0434,0.4474 -0.023,0.4474 0.0204,0 0.3026,-0.2096 0.6273,-0.4658 z"
     fill="#FF95B0"
     id="path4"
     style="opacity:1;fill:#b5b6b8;fill-opacity:1" />
</svg>
