<svg width="14" height="14" viewBox="0 0 14 14" fill="none" xmlns="http://www.w3.org/2000/svg">
<mask id="mask0_2038_1576" style="mask-type:alpha" maskUnits="userSpaceOnUse" x="1" y="5" width="12" height="8">
<rect x="1.39996" y="5.04004" width="11.2" height="7.84" fill="#16191E"/>
</mask>
<g mask="url(#mask0_2038_1576)">
<path d="M11.9778 6.65795C11.9778 3.54684 9.74928 1.68018 6.99999 1.68018C4.25102 1.68018 2.02222 3.54684 2.02222 6.65795C2.02222 8.39209 2.02284 9.88977 3.88888 10.5904V11.9468C3.88888 12.4624 4.30671 12.8802 4.82222 12.8802C5.33773 12.8802 5.75555 12.4624 5.75555 11.9468V10.9653C5.85635 10.9737 5.96057 10.9808 6.06666 10.9871V11.9468C6.06666 12.4624 6.48448 12.8802 6.99999 12.8802C7.51551 12.8802 7.93333 12.4624 7.93333 11.9468V10.9871C8.03973 10.9805 8.14364 10.9737 8.24444 10.9653V11.9468C8.24444 12.4624 8.66257 12.8802 9.17777 12.8802C9.69328 12.8802 10.1111 12.4624 10.1111 11.9468V10.5904C11.9771 9.88977 11.9778 8.39209 11.9778 6.65795Z" fill="#CCD6DD"/>
<path d="M4.82221 7.59129C5.68132 7.59129 6.37777 6.89484 6.37777 6.03573C6.37777 5.17662 5.68132 4.48018 4.82221 4.48018C3.9631 4.48018 3.26666 5.17662 3.26666 6.03573C3.26666 6.89484 3.9631 7.59129 4.82221 7.59129Z" fill="#292F33"/>
<path d="M9.17777 7.59129C10.0369 7.59129 10.7333 6.89484 10.7333 6.03573C10.7333 5.17662 10.0369 4.48018 9.17777 4.48018C8.31866 4.48018 7.62222 5.17662 7.62222 6.03573C7.62222 6.89484 8.31866 7.59129 9.17777 7.59129Z" fill="#292F33"/>
<path d="M7.59204 8.85502C7.51364 8.66431 7.27999 8.52462 6.99999 8.52462C6.71999 8.52462 6.48604 8.66431 6.40795 8.85502C6.21132 8.90978 6.06666 9.08835 6.06666 9.3024C6.06666 9.56 6.27541 9.76907 6.53332 9.76907C6.7371 9.76907 6.90852 9.63778 6.97199 9.45578C6.98132 9.45609 6.99035 9.45795 6.99999 9.45795C7.00964 9.45795 7.01866 9.45609 7.02799 9.45578C7.09177 9.63778 7.26319 9.76907 7.46666 9.76907C7.72426 9.76907 7.93332 9.56 7.93332 9.3024C7.93332 9.08835 7.78835 8.91009 7.59204 8.85502Z" fill="#292F33"/>
</g>
<path d="M3.68706 2.63192V1.42822H4.21301C4.30067 1.42822 4.37872 1.43723 4.44717 1.45525C4.51562 1.47207 4.56965 1.5033 4.60928 1.54895C4.65011 1.5934 4.67052 1.65767 4.67052 1.74176C4.67052 1.79702 4.65791 1.84567 4.63269 1.88772C4.60868 1.92976 4.57386 1.9646 4.52822 1.99223C4.58466 2.01145 4.63029 2.04269 4.66512 2.08593C4.70114 2.12918 4.71915 2.18744 4.71915 2.26072C4.71915 2.35082 4.69874 2.4229 4.65791 2.47696C4.61829 2.53101 4.56185 2.57066 4.4886 2.59588C4.41535 2.61991 4.33009 2.63192 4.23283 2.63192H3.68706ZM3.97165 1.90394H4.22202C4.27005 1.90394 4.30728 1.89313 4.33369 1.8715C4.36131 1.84868 4.37512 1.81864 4.37512 1.7814C4.37512 1.74296 4.36131 1.71353 4.33369 1.69311C4.30728 1.67149 4.27005 1.66067 4.22202 1.66067H3.97165V1.90394ZM3.97165 2.39587H4.23463C4.29587 2.39587 4.3415 2.38386 4.37152 2.35983C4.40274 2.3346 4.41835 2.30097 4.41835 2.25892C4.41835 2.21688 4.40274 2.18384 4.37152 2.15981C4.3415 2.13579 4.29587 2.12377 4.23463 2.12377H3.97165V2.39587Z" fill="white"/>
<path d="M5.08961 2.63192V1.42822H5.55252C5.65699 1.42822 5.75005 1.43843 5.83171 1.45886C5.91456 1.47928 5.9794 1.51652 6.02624 1.57058C6.07427 1.62463 6.09828 1.70152 6.09828 1.80123C6.09828 1.84688 6.08988 1.89252 6.07307 1.93817C6.05626 1.98262 6.02684 2.02347 5.98481 2.06071C5.94398 2.09795 5.88514 2.12678 5.80829 2.1472L6.15772 2.63192H5.8281L5.50209 2.17783H5.3742V2.63192H5.08961ZM5.3742 1.93998H5.56153C5.62877 1.93998 5.68461 1.93157 5.72904 1.91475C5.77467 1.89673 5.79748 1.86009 5.79748 1.80483C5.79748 1.74837 5.77467 1.71173 5.72904 1.69491C5.68461 1.67689 5.62877 1.66788 5.56153 1.66788H5.3742V1.93998Z" fill="white"/>
<path d="M6.48172 2.63192L6.93742 1.42822H7.25083L7.70654 2.63192H7.39673L7.32468 2.41749H6.86357L6.79152 2.63192H6.48172ZM6.94102 2.18684H7.24723L7.09232 1.72915L6.94102 2.18684Z" fill="white"/>
<path d="M8.07115 2.63192V2.40848H8.24047V1.65166H8.07115V1.42822H8.69077V1.65166H8.52506V2.40848H8.69077V2.63192H8.07115Z" fill="white"/>
<path d="M9.12487 2.63192V1.42822H9.48691L9.95162 2.28595V1.42822H10.2272V2.63192H9.86336L9.39865 1.7742V2.63192H9.12487Z" fill="white"/>
<path d="M3.63995 4.50595V2.82077H4.84532V3.17143H4.03838V3.46406H4.84532V3.81472H4.03838V4.50595H3.63995Z" fill="white"/>
<path d="M5.88916 4.53622C5.62522 4.53622 5.43778 4.47315 5.32682 4.34702C5.21755 4.22088 5.16291 4.02831 5.16291 3.76931V2.82077H5.56134V3.80211C5.56134 3.88452 5.56891 3.95684 5.58404 4.01906C5.60085 4.07961 5.63279 4.1267 5.67986 4.16034C5.72693 4.19397 5.7967 4.21079 5.88916 4.21079C5.98162 4.21079 6.05055 4.19397 6.09594 4.16034C6.14301 4.1267 6.17411 4.07961 6.18924 4.01906C6.20605 3.95684 6.21446 3.88452 6.21446 3.80211V2.82077H6.61288V3.76931C6.61288 4.02831 6.55741 4.22088 6.44645 4.34702C6.3355 4.47315 6.14973 4.53622 5.88916 4.53622Z" fill="white"/>
<path d="M7.80586 4.53622C7.63102 4.53622 7.48056 4.5009 7.35448 4.43027C7.22839 4.35963 7.13173 4.25872 7.06448 4.12754C6.99724 3.99636 6.96362 3.84163 6.96362 3.66336C6.96362 3.48509 6.99808 3.3312 7.067 3.2017C7.13761 3.07052 7.2368 2.96961 7.36456 2.89897C7.49233 2.82665 7.64279 2.7905 7.81595 2.7905C7.97565 2.7905 8.11435 2.82581 8.23202 2.89645C8.35138 2.96709 8.443 3.06211 8.50689 3.18152L8.15385 3.31018C8.11687 3.24122 8.06643 3.19245 8.00255 3.16386C7.93867 3.13359 7.87226 3.11845 7.80334 3.11845C7.72601 3.11845 7.6554 3.14031 7.59152 3.18404C7.52763 3.22609 7.4772 3.28831 7.44021 3.37072C7.40323 3.45145 7.38474 3.549 7.38474 3.66336C7.38474 3.83995 7.42508 3.97534 7.50578 4.06952C7.58815 4.16202 7.68902 4.20827 7.80838 4.20827C7.87226 4.20827 7.93783 4.19481 8.00507 4.1679C8.074 4.141 8.12779 4.09138 8.16646 4.01906L8.51697 4.14772C8.44973 4.26713 8.35391 4.36215 8.2295 4.43279C8.10678 4.50175 7.96557 4.53622 7.80586 4.53622Z" fill="white"/>
<path d="M8.83433 4.50595V2.82077H9.23276V3.48929L9.84049 2.82077H10.3272L9.66145 3.54227L10.36 4.50595H9.89848L9.40423 3.81977L9.23276 4.00897V4.50595H8.83433Z" fill="white"/>
</svg>
