<svg width="14" height="14" viewBox="0 0 14 14" fill="none" xmlns="http://www.w3.org/2000/svg">
<g clip-path="url(#clip0_2038_1585)">
<ellipse cx="6.97199" cy="7.01407" rx="5.628" ry="5.642" fill="#64B133"/>
<g clip-path="url(#clip1_2038_1585)">
<circle cx="6.958" cy="6.98656" r="3.01" fill="#91DC48"/>
<path d="M4.84551 4.26977L4.77723 4.25467C4.32589 4.1549 3.85352 4.17796 3.4136 4.31986C3.00316 4.45226 2.62927 4.68463 2.3297 4.99487L0.907548 6.46766C0.907131 6.46809 0.906804 6.4686 0.906586 6.46916C0.904706 6.47398 0.897515 6.47239 0.897843 6.46723L1.05719 3.95747C1.06165 3.8873 1.08473 3.81959 1.12406 3.76131L1.57234 3.09699C1.99559 2.46977 2.61885 2.00444 3.34049 1.7769L3.78 1.63832C4.95446 1.16668 6.20838 0.924316 7.47401 0.924316H7.546L8.526 0.980316H8.55314C9.56756 0.980316 10.5414 1.37878 11.2649 2.08988C11.6014 2.42071 11.8747 2.81034 12.071 3.23953L12.376 3.90632L12.8901 4.90231C12.9948 5.10518 13.1292 5.29128 13.2888 5.45448L13.3602 5.52745C13.9387 6.11876 14.1232 6.99112 13.8339 7.76604C13.611 8.36274 13.1333 8.8287 12.5312 9.03656L12.306 9.11432L11.69 9.29632L10.5493 9.59799C10.1834 9.69475 9.80312 9.72503 9.42653 9.68737L8.99203 9.64392C8.6428 9.609 8.3122 9.46963 8.04337 9.244C7.80038 9.04007 7.61756 8.77379 7.51452 8.47377L7.196 7.54632L6.734 6.14632L6.44021 5.53425C6.30156 5.24541 6.10474 4.98833 5.86207 4.77914C5.57058 4.52785 5.22129 4.35283 4.84551 4.26977Z" fill="#5980D8" stroke="white" stroke-width="0.448"/>
<mask id="mask0_2038_1585" style="mask-type:alpha" maskUnits="userSpaceOnUse" x="3" y="3" width="7" height="7">
<circle cx="6.958" cy="6.98656" r="3.01" fill="#D9D9D9"/>
</mask>
<g mask="url(#mask0_2038_1585)">
<path d="M4.84551 4.26977L4.77723 4.25467C4.32589 4.1549 3.85352 4.17796 3.4136 4.31986C3.00316 4.45226 2.62927 4.68463 2.3297 4.99487L0.907548 6.46766C0.907131 6.46809 0.906804 6.4686 0.906586 6.46916C0.904706 6.47398 0.897515 6.47239 0.897843 6.46723L1.05719 3.95747C1.06165 3.8873 1.08473 3.81959 1.12406 3.76131L1.57234 3.09699C1.99559 2.46977 2.61885 2.00444 3.34049 1.7769L3.78 1.63832C4.95446 1.16668 6.20838 0.924316 7.47401 0.924316H7.546L8.526 0.980316H8.55314C9.56756 0.980316 10.5414 1.37878 11.2649 2.08988C11.6014 2.42071 11.8747 2.81034 12.071 3.23953L12.376 3.90632L12.8901 4.90231C12.9948 5.10518 13.1292 5.29128 13.2888 5.45448L13.3602 5.52745C13.9387 6.11876 14.1232 6.99112 13.8339 7.76604C13.611 8.36274 13.1333 8.8287 12.5312 9.03656L12.306 9.11432L11.69 9.29632L10.5493 9.59799C10.1834 9.69475 9.80312 9.72503 9.42653 9.68737L8.99203 9.64392C8.6428 9.609 8.3122 9.46963 8.04337 9.244C7.80038 9.04007 7.61756 8.77379 7.51452 8.47377L7.196 7.54632L6.734 6.14632L6.44021 5.53425C6.30156 5.24541 6.10474 4.98833 5.86207 4.77914C5.57058 4.52785 5.22129 4.35283 4.84551 4.26977Z" fill="#91B4FF" stroke="white" stroke-width="0.448"/>
</g>
<circle cx="6.958" cy="6.98656" r="3.01" stroke="white" stroke-width="0.448"/>
<path d="M5.18005 9.50616L5.74005 8.10616L6.74805 6.11816" stroke="white" stroke-width="0.448"/>
<path d="M1.38599 5.50226L2.03709 4.89974C2.22785 4.72322 2.43631 4.56686 2.65917 4.43315L2.84743 4.32019C3.19429 4.11207 3.58237 3.98209 3.98461 3.9393L4.0433 3.93305C4.46764 3.88791 4.89652 3.94995 5.29067 4.11348L5.41225 4.16392C5.79935 4.32453 6.13008 4.5964 6.36255 4.94511V4.94511C6.49717 5.14704 6.59607 5.37061 6.65493 5.60605L6.98599 6.93026" stroke="white" stroke-width="0.448"/>
<path d="M6.74805 6.16064L7.08405 7.15464L7.30805 7.64464L7.45482 7.97342C7.58979 8.27575 7.76149 8.5603 7.96605 8.82064V8.82064L8.18027 9.02818C8.33021 9.17343 8.53077 9.25464 8.73953 9.25464V9.25464C8.7838 9.25464 8.82799 9.2583 8.87166 9.26558L9.18405 9.31764C9.43562 9.35957 9.69022 9.38064 9.94526 9.38064H10.206H10.766L11.718 9.25464H12.166H12.376" stroke="white" stroke-width="0.448"/>
<path d="M5.37092 9.51098L5.74 8.44254L6.05167 7.67332L6.47158 6.6202L6.73397 6.02054" stroke="white" stroke-width="0.448"/>
</g>
<rect x="1.11999" y="1.09241" width="11.704" height="11.788" rx="5.852" stroke="white" stroke-width="0.448"/>
</g>
<defs>
<clipPath id="clip0_2038_1585">
<rect width="14" height="14" fill="white"/>
</clipPath>
<clipPath id="clip1_2038_1585">
<rect x="1.34399" y="1.31641" width="11.256" height="11.34" rx="5.628" fill="white"/>
</clipPath>
</defs>
</svg>
