<svg width="14" height="14" viewBox="0 0 14 14" fill="none" xmlns="http://www.w3.org/2000/svg">
<path d="M2.43534 3.80835C2.5954 3.53113 2.89119 3.36035 3.2113 3.36035L6.37669 3.36035C6.6968 3.36035 6.99259 3.53113 7.15265 3.80835L8.73534 6.54966C8.8954 6.82688 8.8954 7.16843 8.73534 7.44566L7.15265 10.187C6.99259 10.4642 6.6968 10.635 6.37669 10.635H3.2113C2.89119 10.635 2.5954 10.4642 2.43534 10.187L0.852647 7.44566C0.692592 7.16843 0.692592 6.82688 0.852647 6.54966L2.43534 3.80835Z" fill="#2B67ED"/>
<path d="M6.80387 7.41005L6.79946 7.40649L6.50359 7.17446C6.48485 7.15964 6.4699 7.14058 6.45996 7.11886C6.45002 7.09713 6.44537 7.07336 6.4464 7.04949V6.94112C6.44546 6.9174 6.45017 6.8938 6.46012 6.87225C6.47008 6.85071 6.48501 6.83183 6.50368 6.81718L6.79946 6.58505L6.80387 6.58149C6.84949 6.54349 6.8801 6.4905 6.89023 6.432C6.90036 6.37351 6.88936 6.31331 6.85918 6.26218L6.45878 5.56937C6.45832 5.56872 6.45791 5.56803 6.45756 5.56731C6.42722 5.51688 6.38018 5.47868 6.3246 5.45933C6.26903 5.43998 6.20844 5.4407 6.15334 5.46137L6.15006 5.46259L5.80225 5.60256C5.78029 5.61143 5.75655 5.61496 5.73296 5.61286C5.70938 5.61076 5.68663 5.60308 5.66659 5.59046C5.63584 5.57109 5.60459 5.55278 5.57284 5.53553C5.55226 5.52436 5.53458 5.50852 5.52124 5.48927C5.50791 5.47002 5.49928 5.44791 5.49606 5.42471L5.44365 5.05356L5.44253 5.04681C5.43112 4.98932 5.40027 4.93751 5.35517 4.90009C5.31006 4.86267 5.25345 4.84191 5.19484 4.84131H4.39309C4.33366 4.8415 4.27621 4.86266 4.23084 4.90106C4.18548 4.93945 4.15513 4.99263 4.14513 5.05121L4.14428 5.05646L4.09206 5.42837C4.08886 5.4515 4.0803 5.47356 4.06707 5.4928C4.05384 5.51203 4.0363 5.52792 4.01585 5.53918C3.984 5.55633 3.95274 5.57453 3.9221 5.59374C3.9021 5.60629 3.87941 5.61391 3.85589 5.61598C3.83237 5.61804 3.8087 5.61451 3.78682 5.60565L3.43872 5.46503L3.43544 5.46371C3.38027 5.44302 3.31958 5.44232 3.26395 5.46175C3.20831 5.48117 3.16125 5.51949 3.13094 5.57003L3.12972 5.57209L2.72876 6.26537C2.69853 6.31655 2.6875 6.37681 2.69764 6.43538C2.70777 6.49395 2.73841 6.547 2.78407 6.58505L2.78847 6.58862L3.08435 6.82065C3.10309 6.83547 3.11804 6.85453 3.12798 6.87625C3.13792 6.89797 3.14257 6.92175 3.14154 6.94562V7.05399C3.14247 7.07771 3.13777 7.10131 3.12781 7.12285C3.11786 7.1444 3.10293 7.16327 3.08425 7.17793L2.78847 7.41005L2.78407 7.41361C2.73845 7.45161 2.70784 7.5046 2.69771 7.5631C2.68757 7.6216 2.69858 7.6818 2.72876 7.73293L3.12916 8.42574C3.12962 8.42639 3.13003 8.42708 3.13038 8.4278C3.16072 8.47822 3.20776 8.51643 3.26333 8.53578C3.31891 8.55513 3.3795 8.55441 3.4346 8.53374L3.43788 8.53252L3.78541 8.39255C3.80736 8.38367 3.83111 8.38014 3.85469 8.38224C3.87828 8.38435 3.90103 8.39202 3.92106 8.40464C3.95181 8.42408 3.98306 8.44239 4.01481 8.45958C4.0354 8.47074 4.05307 8.48659 4.06641 8.50584C4.07975 8.52508 4.08837 8.5472 4.0916 8.57039L4.14372 8.94155L4.14485 8.9483C4.15627 9.00588 4.18721 9.05776 4.23243 9.09519C4.27765 9.13263 4.33439 9.15332 4.39309 9.1538H5.19484C5.25427 9.15361 5.31173 9.13245 5.35709 9.09405C5.40245 9.05565 5.43281 9.00248 5.44281 8.94389L5.44365 8.93864L5.49587 8.56674C5.49913 8.54356 5.50776 8.52147 5.52107 8.50223C5.53439 8.48299 5.55202 8.46713 5.57256 8.45592C5.60462 8.43867 5.63593 8.42039 5.66631 8.40136C5.68631 8.38882 5.709 8.3812 5.73252 8.37913C5.75603 8.37706 5.77971 8.3806 5.80159 8.38946L6.14968 8.52961L6.15296 8.53092C6.20814 8.55165 6.26883 8.55237 6.32448 8.53294C6.38012 8.51351 6.42718 8.47518 6.45746 8.42461C6.45784 8.4239 6.45824 8.42322 6.45868 8.42255L6.85909 7.72983C6.88937 7.67866 6.90044 7.61838 6.89032 7.55978C6.8802 7.50119 6.84956 7.44811 6.80387 7.41005ZM5.54312 7.0328C5.5363 7.17798 5.48743 7.31805 5.40248 7.43597C5.31752 7.5539 5.20013 7.6446 5.06459 7.69704C4.92904 7.74949 4.78117 7.76142 4.63897 7.73138C4.49677 7.70135 4.36636 7.63065 4.26359 7.52787C4.16083 7.42509 4.09014 7.29467 4.06012 7.15247C4.03011 7.01026 4.04206 6.8624 4.09452 6.72686C4.14698 6.59132 4.23769 6.47394 4.35563 6.389C4.47356 6.30405 4.61363 6.25521 4.75881 6.2484C4.86304 6.24381 4.96708 6.26096 5.06432 6.29876C5.16156 6.33655 5.24987 6.39417 5.32364 6.46795C5.39741 6.54172 5.45501 6.63004 5.4928 6.72729C5.53059 6.82453 5.54772 6.92858 5.54312 7.0328Z" fill="white"/>
<path d="M9.26058 5.38723C9.10527 5.38723 8.97162 5.35587 8.85962 5.29315C8.74762 5.23043 8.66175 5.14083 8.60202 5.02435C8.54229 4.90787 8.51242 4.77048 8.51242 4.61219C8.51242 4.4539 8.54303 4.31726 8.60426 4.20227C8.66698 4.08579 8.75509 3.99619 8.86858 3.93347C8.98207 3.86926 9.11573 3.83715 9.26954 3.83715C9.41141 3.83715 9.53461 3.86851 9.63914 3.93123C9.74517 3.99395 9.82655 4.07832 9.8833 4.18435L9.5697 4.29859C9.53685 4.23736 9.49205 4.19406 9.4353 4.16867C9.37855 4.14179 9.31957 4.12835 9.25834 4.12835C9.18965 4.12835 9.12693 4.14776 9.07018 4.18659C9.01343 4.22392 8.96863 4.27918 8.93578 4.35235C8.90293 4.42403 8.8865 4.51064 8.8865 4.61219C8.8865 4.76899 8.92234 4.8892 8.99402 4.97283C9.06719 5.05496 9.15679 5.09603 9.26282 5.09603C9.31957 5.09603 9.37781 5.08408 9.43754 5.06019C9.49877 5.0363 9.54655 4.99224 9.5809 4.92803L9.89226 5.04227C9.83253 5.1483 9.74741 5.23267 9.6369 5.29539C9.52789 5.35662 9.40245 5.38723 9.26058 5.38723ZM10.7531 5.38723C10.6008 5.38723 10.4664 5.35512 10.3499 5.29091C10.2334 5.2267 10.1423 5.13635 10.0766 5.01987C10.0109 4.90339 9.97805 4.7675 9.97805 4.61219C9.97805 4.45688 10.0109 4.32099 10.0766 4.20451C10.1423 4.08803 10.2334 3.99768 10.3499 3.93347C10.4664 3.86926 10.6008 3.83715 10.7531 3.83715C10.9069 3.83715 11.042 3.86926 11.1585 3.93347C11.275 3.99768 11.3661 4.08803 11.4318 4.20451C11.499 4.32099 11.5326 4.45688 11.5326 4.61219C11.5326 4.7675 11.499 4.90339 11.4318 5.01987C11.3661 5.13635 11.275 5.2267 11.1585 5.29091C11.042 5.35512 10.9069 5.38723 10.7531 5.38723ZM10.7531 5.09603C10.8263 5.09603 10.8935 5.07811 10.9547 5.04227C11.0159 5.00494 11.0644 4.95043 11.1003 4.87875C11.1376 4.80707 11.1563 4.71822 11.1563 4.61219C11.1563 4.50616 11.1376 4.41731 11.1003 4.34563C11.0644 4.27395 11.0159 4.22019 10.9547 4.18435C10.8935 4.14702 10.8263 4.12835 10.7531 4.12835C10.6814 4.12835 10.615 4.14702 10.5537 4.18435C10.4925 4.22019 10.4432 4.27395 10.4059 4.34563C10.37 4.41731 10.3521 4.50616 10.3521 4.61219C10.3521 4.71822 10.37 4.80707 10.4059 4.87875C10.4432 4.95043 10.4925 5.00494 10.5537 5.04227C10.615 5.07811 10.6814 5.09603 10.7531 5.09603ZM11.7088 5.36035V3.86403H12.3629C12.4719 3.86403 12.569 3.87523 12.6541 3.89763C12.7392 3.91854 12.8064 3.95736 12.8557 4.01411C12.9065 4.06936 12.9319 4.14926 12.9319 4.25379C12.9319 4.32248 12.9162 4.38296 12.8848 4.43523C12.855 4.4875 12.8117 4.5308 12.7549 4.56515C12.8251 4.58904 12.8818 4.62787 12.9252 4.68163C12.97 4.73539 12.9924 4.80782 12.9924 4.89891C12.9924 5.01091 12.967 5.10051 12.9162 5.16771C12.8669 5.23491 12.7967 5.28419 12.7056 5.31555C12.6145 5.34542 12.5085 5.36035 12.3876 5.36035H11.7088ZM12.0628 4.45539H12.3741C12.4338 4.45539 12.4801 4.44195 12.513 4.41507C12.5473 4.3867 12.5645 4.34936 12.5645 4.30307C12.5645 4.25528 12.5473 4.2187 12.513 4.19331C12.4801 4.16643 12.4338 4.15299 12.3741 4.15299H12.0628V4.45539ZM12.0628 5.06691H12.3898C12.466 5.06691 12.5227 5.05198 12.56 5.02211C12.5989 4.99075 12.6183 4.94894 12.6183 4.89667C12.6183 4.8444 12.5989 4.80334 12.56 4.77347C12.5227 4.7436 12.466 4.72867 12.3898 4.72867H12.0628V5.06691Z" fill="white"/>
</svg>
