<svg width="14" height="14" viewBox="0 0 14 14" fill="none" xmlns="http://www.w3.org/2000/svg">
<path d="M5.85182 3.27394C5.86183 3.33395 5.83181 3.38397 5.73171 3.43398C5.60159 3.36396 5.32133 3.32395 5.09111 3.34395C4.84088 3.36396 4.63069 3.44398 4.66071 3.61402C4.70075 3.78407 4.94097 3.88409 5.37138 3.84408C6.42236 3.75406 6.41235 3.04387 7.95378 2.90384C9.1549 2.79381 9.82553 3.16391 9.91561 3.61402C9.98568 3.96412 9.69541 4.3042 8.82459 4.37422C8.05388 4.44424 7.60346 4.23419 7.56342 4.02413C7.5434 3.9141 7.60346 3.75406 7.9738 3.71405C8.01384 3.88409 8.22403 4.06414 8.7245 4.01413C9.08484 3.98412 9.38512 3.85409 9.34508 3.65403C9.30504 3.44398 8.92469 3.32395 8.32413 3.37396C7.10299 3.48399 6.80271 4.15416 5.76174 4.24419C5.02105 4.31421 4.42049 4.04413 4.34042 3.64403C4.31039 3.49399 4.31039 3.1439 5.09111 3.07388C5.49149 3.04388 5.81179 3.11389 5.85182 3.27394ZM1.94819 7.45502C1.60787 7.88514 1.45773 8.38527 1.48776 8.8754C1.51778 9.36552 1.75801 9.76563 2.13836 10.0757C2.53874 10.3858 2.96914 10.4758 3.45959 10.3858C3.64977 10.3558 3.85997 10.2558 4.05014 10.1957C3.64977 10.1957 3.30945 10.0657 2.96914 9.79563C2.59879 9.52556 2.34856 9.14547 2.2885 8.68535C2.19842 8.25523 2.2885 7.85513 2.52873 7.50504C2.79898 7.16495 3.14931 6.9749 3.60973 6.91488C4.07016 6.88488 4.47054 7.00491 4.87091 7.28498C4.78083 7.15495 4.6507 7.06492 4.53059 6.94489C4.13022 6.67482 3.69982 6.54479 3.16932 6.67482C2.68888 6.77485 2.2885 7.02491 1.94819 7.45502ZM7.31319 5.14442C6.02198 5.14442 4.87091 5.01439 4.04014 4.83434C3.14931 4.61429 2.67887 4.37422 2.67887 4.06414C2.67887 3.93411 2.73892 3.82408 2.91909 3.69404C2.35857 3.9141 2.05829 4.09415 2.05829 4.37422C2.08832 4.6843 2.58878 4.99438 3.60973 5.23445C4.57063 5.47451 5.80178 5.60454 7.28316 5.60454C8.79457 5.60454 9.99569 5.47451 10.9566 5.23445C11.9775 4.99438 12.468 4.6743 12.468 4.37422C12.468 4.15417 12.2478 3.94411 11.8474 3.78407C11.9375 3.84409 12.0076 3.94411 12.0076 4.05414C12.0076 4.36422 11.5471 4.61429 10.6163 4.82434C9.75546 5.01439 8.65444 5.14442 7.31319 5.14442ZM10.9966 6.00465C10.0357 6.2247 8.80458 6.37474 7.3232 6.37474C5.81179 6.37474 4.58064 6.2147 3.61974 6.00465C2.75894 5.78459 2.29851 5.54453 2.13836 5.29446C2.29851 6.37474 2.66886 7.39501 3.15931 8.29524C3.52966 8.85539 3.9 9.34552 4.27035 9.87566C4.4305 10.1857 4.5406 10.4958 4.61067 10.8059C4.85089 11.146 5.20122 11.366 5.63162 11.4861C6.16211 11.6761 6.71263 11.7561 7.27315 11.7261H7.3332C7.89373 11.7561 8.48428 11.6661 9.02478 11.4861C9.42515 11.356 9.76547 11.146 10.0157 10.8059H10.0457C10.1058 10.4958 10.2059 10.1857 10.356 9.87566C10.7264 9.34552 11.0967 8.85539 11.4671 8.29524C11.9575 7.40501 12.2978 6.38474 12.488 5.29446C12.2878 5.57453 11.8274 5.8146 10.9966 6.00465Z" fill="#FFCE50"/>
</svg>
