<svg width="14" height="14" viewBox="0 0 14 14" fill="none" xmlns="http://www.w3.org/2000/svg">
<g clip-path="url(#clip0_2038_1619)">
<path d="M7 12.1411C9.83909 12.1411 12.1406 9.83958 12.1406 7.00049C12.1406 4.1614 9.83909 1.85986 7 1.85986C4.16091 1.85986 1.85938 4.1614 1.85938 7.00049C1.85938 9.83958 4.16091 12.1411 7 12.1411Z" fill="#E0E4EF"/>
<path d="M6.99038 1.8379C5.62595 1.84046 4.31791 2.38307 3.35257 3.3471C1.33491 5.36159 1.33235 8.63035 3.34685 10.6479C5.36131 12.6655 8.6301 12.6681 10.6476 10.6536C12.6653 8.63912 12.6678 5.37036 10.6534 3.35283C9.68261 2.38055 8.36435 1.83534 6.99038 1.8379ZM7.04028 1.8599C8.35134 1.8705 9.65194 2.38073 10.6378 3.36825C12.6438 5.37736 12.6413 8.63225 10.6322 10.6382C9.62763 11.6412 8.00018 11.6399 6.99721 10.6354C5.99422 9.63082 5.99549 8.00337 7.00003 7.0004C8.01529 5.98673 8.01658 4.34193 7.00287 3.32671C6.19166 2.51425 4.93663 2.30836 3.92594 2.85294C4.85379 2.16298 5.95399 1.85111 7.04028 1.8599ZM2.86565 4.70934H3.74065C3.95816 5.63131 4.29199 6.44661 4.63206 7.25625C4.97987 6.35224 5.35838 5.47893 5.84065 4.70934H6.71565C5.64535 6.83918 4.48025 8.29815 6.19065 10.1781H5.31565C4.27513 8.4884 3.5123 6.94781 2.86565 4.70934Z" fill="#16171C" stroke="#16171C" stroke-width="0.109375"/>
<path d="M7.30217 9.28008C7.4333 9.01967 7.56574 8.76927 7.6941 8.52678L7.69973 8.51613C7.82867 8.27255 7.9534 8.0369 8.06831 7.80728C8.30143 7.34141 8.49441 6.89973 8.60035 6.46552C8.70632 6.03115 8.72523 5.60408 8.61009 5.16753C8.49646 4.73669 8.25246 4.29739 7.83408 3.8332H8.67831C9.71463 5.5166 10.4751 7.05259 11.1199 9.28008H10.2681C10.0503 8.36057 9.71713 7.54699 9.3781 6.73987L9.36757 6.71481L9.35781 6.74018C9.01085 7.64202 8.63355 8.51269 8.15337 9.28008H7.30217Z" fill="#16171C" stroke="#16171C" stroke-width="0.021875"/>
</g>
<defs>
<clipPath id="clip0_2038_1619">
<rect width="11.2" height="11.2" fill="white" transform="translate(1.40002 1.40039)"/>
</clipPath>
</defs>
</svg>
