<svg width="14" height="14" viewBox="0 0 14 14" fill="none" xmlns="http://www.w3.org/2000/svg">
<rect x="2.84711" y="6.1236" width="1.16836" height="1.134" rx="0.137455" fill="#2495EC" stroke="#2754A1" stroke-width="0.206182" stroke-linejoin="round"/>
<rect x="4.01544" y="6.1236" width="1.16836" height="1.134" rx="0.137455" fill="#2495EC" stroke="#2754A1" stroke-width="0.206182" stroke-linejoin="round"/>
<rect x="5.18384" y="6.1236" width="1.16836" height="1.134" rx="0.137455" fill="#2495EC" stroke="#2754A1" stroke-width="0.206182" stroke-linejoin="round"/>
<rect x="6.35218" y="6.1236" width="1.16836" height="1.134" rx="0.137455" fill="#2495EC" stroke="#2754A1" stroke-width="0.206182" stroke-linejoin="round"/>
<rect x="7.52057" y="6.1236" width="1.16836" height="1.134" rx="0.137455" fill="#2495EC" stroke="#2754A1" stroke-width="0.206182" stroke-linejoin="round"/>
<rect x="4.01544" y="5.01618" width="1.16836" height="1.134" rx="0.137455" fill="#2495EC" stroke="#2754A1" stroke-width="0.206182" stroke-linejoin="round"/>
<rect x="5.18378" y="5.01618" width="1.16836" height="1.134" rx="0.137455" fill="#2495EC" stroke="#2754A1" stroke-width="0.206182" stroke-linejoin="round"/>
<rect x="6.35218" y="5.01618" width="1.16836" height="1.134" rx="0.137455" fill="#2495EC" stroke="#2754A1" stroke-width="0.206182" stroke-linejoin="round"/>
<rect x="6.35218" y="3.91657" width="1.16836" height="1.134" rx="0.137455" fill="#2495EC" stroke="#2754A1" stroke-width="0.206182" stroke-linejoin="round"/>
<path d="M10.8134 6.09014L10.819 6.19373L10.9192 6.16673C11.1696 6.0992 11.4708 6.08364 11.7437 6.10814C12.017 6.13268 12.2469 6.19606 12.3674 6.27536C12.3686 6.27626 12.3698 6.27713 12.371 6.27797L12.4404 6.32459C12.4707 6.3449 12.481 6.38396 12.4654 6.41597C12.4463 6.45503 12.4274 6.49315 12.4158 6.51547C12.4115 6.52367 12.408 6.53008 12.404 6.53718C12.4008 6.54303 12.3973 6.54935 12.393 6.55752C11.9559 7.37445 11.101 7.35745 10.7012 7.3495C10.6852 7.34918 10.6699 7.34887 10.6553 7.34864L10.5974 7.3477L10.5759 7.40151C10.0181 8.80025 9.28337 9.7824 8.42657 10.4147C7.57038 11.0466 6.58703 11.333 5.52434 11.332H5.52433C4.13036 11.3309 3.20682 10.8785 2.59824 10.2691C2.49933 10.1701 2.4085 10.0674 2.32554 9.96118C1.83203 9.32939 1.61863 8.60086 1.53393 7.9971C1.47873 7.60363 1.80857 7.27164 2.22447 7.27164H5.70379C6.19281 7.27164 6.61613 7.27443 6.98529 7.27686C7.66527 7.28134 8.16153 7.2846 8.54622 7.26702C9.14413 7.23968 9.48727 7.16168 9.84491 6.95419L9.93052 6.90453L9.8676 6.82814C9.69978 6.62435 9.6095 6.33818 9.5823 6.07789C9.54814 5.65422 9.64599 5.19061 9.87281 4.84627C9.91359 4.78464 9.99633 4.76745 10.0577 4.80691C10.5352 5.18001 10.787 5.59912 10.8134 6.09014Z" fill="#2496ED" stroke="#2754A1" stroke-width="0.168"/>
<path d="M2.58997 10.248C3.61184 10.2086 3.99796 10.0364 4.36797 9.47803" stroke="#2754A1" stroke-width="0.168" stroke-linecap="round"/>
<path d="M6.076 11.228C5.09193 10.7441 4.81772 10.4497 4.438 9.52002C4.09388 10.0764 3.68003 10.2256 2.758 10.332C3.78 11.102 4.312 11.27 6.076 11.228Z" fill="white"/>
<circle cx="5.012" cy="8.82022" r="0.392" fill="white"/>
<circle cx="5.01198" cy="8.82002" r="0.196" fill="#2589DE"/>
<circle cx="5.15198" cy="8.68036" r="0.112" fill="white"/>
</svg>
