<svg width="14" height="14" viewBox="0 0 14 14" fill="none" xmlns="http://www.w3.org/2000/svg">
<rect x="0.820007" y="4.66016" width="12.36" height="4.68" rx="0.84" fill="#233F69"/>
<rect x="0.820007" y="4.66016" width="12.36" height="4.68" rx="0.84" fill="#FF9900"/>
<rect x="0.820007" y="4.66016" width="12.36" height="4.68" rx="0.84" fill="black" fill-opacity="0.75"/>
<g filter="url(#filter0_d_2038_1525)">
<path d="M2.57392 8.5V8.4664L2.64448 8.43952C2.71616 8.4104 2.752 8.35328 2.752 8.26816V6.51424C2.752 6.42464 2.71616 6.36752 2.64448 6.34288L2.57392 6.316V6.2824H3.46096C3.6984 6.2824 3.90224 6.3272 4.07248 6.4168C4.24496 6.50416 4.37712 6.63072 4.46896 6.79648C4.56304 6.96 4.61008 7.15712 4.61008 7.38784C4.61008 7.62304 4.55968 7.82352 4.45888 7.98928C4.35808 8.15504 4.21696 8.2816 4.03552 8.36896C3.85632 8.45632 3.64464 8.5 3.40048 8.5H2.57392ZM3.256 8.4328H3.40048C3.56176 8.4328 3.69168 8.40144 3.79024 8.33872C3.8888 8.27376 3.96048 8.16624 4.00528 8.01616C4.05232 7.86384 4.07584 7.65552 4.07584 7.3912C4.07584 7.12688 4.05232 6.91968 4.00528 6.7696C3.96048 6.61728 3.88992 6.50976 3.7936 6.44704C3.69728 6.38208 3.57072 6.3496 3.41392 6.3496H3.256V8.4328ZM5.05507 9.3064C4.96547 9.3064 4.89379 9.284 4.84003 9.2392C4.78851 9.1944 4.76275 9.13728 4.76275 9.06784C4.76275 9.00512 4.78515 8.95472 4.82995 8.91664C4.87475 8.87856 4.92515 8.85952 4.98115 8.85952C5.03715 8.85952 5.08419 8.87072 5.12227 8.89312C5.16035 8.91776 5.19395 8.95248 5.22307 8.99728L5.24659 9.02416C5.29587 9.09136 5.34515 9.09024 5.39443 9.0208C5.41459 8.9872 5.43699 8.9424 5.46163 8.8864C5.48851 8.83264 5.51875 8.75984 5.55235 8.668L4.90051 7.10896C4.88483 7.0664 4.86803 7.0328 4.85011 7.00816C4.83219 6.98128 4.80307 6.95888 4.76275 6.94096L4.70227 6.91744V6.88384H5.53891V6.91408L5.47171 6.94096C5.42243 6.95664 5.39667 6.9824 5.39443 7.01824C5.39443 7.05184 5.40339 7.0944 5.42131 7.14592L5.77075 8.05312L6.10339 7.13584C6.12131 7.08432 6.12803 7.04176 6.12355 7.00816C6.11907 6.97232 6.09107 6.94768 6.03955 6.93424L5.96899 6.91744V6.88384H6.43603V6.91744L6.36211 6.94096C6.31059 6.95664 6.27475 6.97904 6.25459 7.00816C6.23443 7.03728 6.21539 7.0776 6.19747 7.12912L5.65651 8.60416C5.56915 8.83936 5.48179 9.0152 5.39443 9.13168C5.30707 9.24816 5.19395 9.3064 5.05507 9.3064ZM6.47869 8.5V8.4664L6.51901 8.45296C6.59965 8.42608 6.63997 8.37008 6.63997 8.28496V6.48736C6.63997 6.44256 6.63101 6.40896 6.61309 6.38656C6.59517 6.36192 6.56381 6.344 6.51901 6.3328L6.47533 6.32272V6.28912L7.09021 6.14464L7.13053 6.17488L7.11709 6.64528V7.7944C7.11709 7.87728 7.11709 7.96016 7.11709 8.04304C7.11933 8.12368 7.12045 8.20432 7.12045 8.28496C7.12045 8.32976 7.12941 8.36672 7.14733 8.39584C7.16525 8.42272 7.19549 8.44288 7.23805 8.45632L7.28173 8.4664V8.5H6.47869ZM7.88776 8.5504C7.75784 8.5504 7.64808 8.51344 7.55848 8.43952C7.47112 8.3656 7.42744 8.2592 7.42744 8.12032C7.42744 8.01504 7.4812 7.91872 7.58872 7.83136C7.69624 7.74176 7.86536 7.67456 8.09608 7.62976C8.13192 7.62304 8.17224 7.61632 8.21704 7.6096C8.26184 7.60064 8.30888 7.59168 8.35816 7.58272V7.31728C8.35816 7.16496 8.33912 7.05856 8.30104 6.99808C8.2652 6.93536 8.20808 6.904 8.12968 6.904C8.07592 6.904 8.03336 6.92192 8.002 6.95776C7.97064 6.99136 7.95048 7.05072 7.94152 7.13584L7.9348 7.1728C7.93032 7.26912 7.9068 7.33968 7.86424 7.38448C7.82168 7.42928 7.76904 7.45168 7.70632 7.45168C7.64808 7.45168 7.59992 7.43376 7.56184 7.39792C7.52376 7.36208 7.50472 7.31392 7.50472 7.25344C7.50472 7.1616 7.53608 7.08432 7.5988 7.0216C7.66376 6.95888 7.74888 6.91184 7.85416 6.88048C7.95944 6.84912 8.07368 6.83344 8.19688 6.83344C8.39624 6.83344 8.54968 6.88272 8.6572 6.98128C8.76696 7.0776 8.82184 7.23552 8.82184 7.45504V8.1976C8.82184 8.2984 8.86888 8.3488 8.96296 8.3488H9.03688L9.06712 8.37568C9.02456 8.42944 8.97752 8.47088 8.926 8.5C8.87672 8.52912 8.80616 8.54368 8.71432 8.54368C8.61576 8.54368 8.53736 8.52128 8.47912 8.47648C8.42312 8.42944 8.38616 8.36784 8.36824 8.29168C8.30104 8.36336 8.2316 8.42496 8.15992 8.47648C8.09048 8.52576 7.99976 8.5504 7.88776 8.5504ZM8.09272 8.34544C8.13752 8.34544 8.17896 8.33536 8.21704 8.3152C8.25736 8.2928 8.3044 8.2592 8.35816 8.2144V7.64992C8.33576 7.6544 8.31336 7.65888 8.29096 7.66336C8.26856 7.66784 8.2428 7.67232 8.21368 7.6768C8.11064 7.70368 8.02776 7.7496 7.96504 7.81456C7.90456 7.87728 7.87432 7.9624 7.87432 8.06992C7.87432 8.16176 7.8956 8.2312 7.93816 8.27824C7.98072 8.32304 8.03224 8.34544 8.09272 8.34544ZM9.1297 8.5V8.4664L9.17674 8.45296C9.25514 8.43056 9.29434 8.37568 9.29434 8.28832V7.23664C9.29434 7.18736 9.2865 7.15152 9.27082 7.12912C9.25514 7.10448 9.2249 7.08768 9.1801 7.07872L9.1297 7.06528V7.03168L9.70426 6.8368L9.73786 6.8704L9.76474 7.072C9.84314 7.00256 9.93162 6.94544 10.0302 6.90064C10.1287 6.85584 10.2262 6.83344 10.3225 6.83344C10.4703 6.83344 10.5835 6.87376 10.6619 6.9544C10.7425 7.03504 10.7828 7.15824 10.7828 7.324V8.29168C10.7828 8.37904 10.8254 8.43392 10.9105 8.45632L10.9407 8.4664V8.5H10.1478V8.4664L10.1915 8.45296C10.2699 8.42832 10.3091 8.37344 10.3091 8.28832V7.21648C10.3091 7.07312 10.2374 7.00144 10.094 7.00144C9.99546 7.00144 9.88794 7.05072 9.77146 7.14928V8.29168C9.77146 8.37904 9.81066 8.43392 9.88906 8.45632L9.9193 8.4664V8.5H9.1297Z" fill="#FF9900"/>
</g>
<defs>
<filter id="filter0_d_2038_1525" x="1.87391" y="5.58453" width="9.76682" height="4.56211" filterUnits="userSpaceOnUse" color-interpolation-filters="sRGB">
<feFlood flood-opacity="0" result="BackgroundImageFix"/>
<feColorMatrix in="SourceAlpha" type="matrix" values="0 0 0 0 0 0 0 0 0 0 0 0 0 0 0 0 0 0 127 0" result="hardAlpha"/>
<feOffset dy="0.14"/>
<feGaussianBlur stdDeviation="0.35"/>
<feComposite in2="hardAlpha" operator="out"/>
<feColorMatrix type="matrix" values="0 0 0 0 0 0 0 0 0 0 0 0 0 0 0 0 0 0 0.25 0"/>
<feBlend mode="normal" in2="BackgroundImageFix" result="effect1_dropShadow_2038_1525"/>
<feBlend mode="normal" in="SourceGraphic" in2="effect1_dropShadow_2038_1525" result="shape"/>
</filter>
</defs>
</svg>
