<svg width="14" height="14" viewBox="0 0 14 14" fill="none" xmlns="http://www.w3.org/2000/svg">
<path d="M6.04801 1.28807C6.40213 0.993966 6.9799 0.668574 7.2228 0.536606C7.28634 0.502084 7.36502 0.524433 7.40223 0.58644C7.4139 0.605891 7.42055 0.627938 7.42158 0.650597L7.45949 1.48457C7.47047 1.72623 7.50691 1.96606 7.5682 2.20008L7.78401 3.02407C7.98812 3.52508 8.26828 3.9916 8.61461 4.4072L8.65201 4.45207L9.54801 5.57207L10.388 6.77607L10.5814 7.09599C10.9312 7.67435 11.116 8.33734 11.116 9.0132C11.116 9.25719 11.0932 9.50066 11.0334 9.73721C10.948 10.075 10.8007 10.5795 10.612 10.9201C10.0676 11.9026 9.52218 12.4704 8.45601 12.8241C8.44249 12.8286 8.42877 12.8329 8.41488 12.8372C7.3272 13.1686 6.08823 13.0154 5.09601 12.4601C4.39759 12.0692 3.91854 11.2127 3.60083 10.3745C3.08587 9.01589 2.97916 7.48975 3.41601 6.10407C4.06045 4.05994 4.88958 2.25018 6.04801 1.28807Z" fill="url(#paint0_radial_2038_1583)"/>
<defs>
<radialGradient id="paint0_radial_2038_1583" cx="0" cy="0" r="1" gradientUnits="userSpaceOnUse" gradientTransform="translate(7.084 6.72007) rotate(90) scale(6.244 4.032)">
<stop stop-color="#B38BDA"/>
<stop offset="1" stop-color="#BEA2DA" stop-opacity="0.62"/>
</radialGradient>
</defs>
</svg>
