<svg width="14" height="14" viewBox="0 0 14 14" fill="none" xmlns="http://www.w3.org/2000/svg">
<path fill-rule="evenodd" clip-rule="evenodd" d="M4.91366 10.7425C4.9741 10.7425 4.99285 10.6551 4.9388 10.6281V10.6281C4.29893 10.2924 3.79543 9.81512 3.4283 9.19623C3.07165 8.57735 2.89333 7.83783 2.89333 6.97769C2.89333 6.14901 3.08214 5.43048 3.45977 4.82208C3.84788 4.21369 4.35663 3.74166 4.986 3.40599V3.40599C5.04645 3.37428 5.02448 3.27588 4.95621 3.27588L1.67999 3.27588C1.52535 3.27588 1.39999 3.40124 1.39999 3.55588V10.4625C1.39999 10.6172 1.52535 10.7425 1.67999 10.7425H4.91366ZM9.05654 10.7425C9.0282 10.7425 9.01978 10.703 9.04546 10.691V10.691C9.55995 10.4556 10.002 10.1114 10.3715 9.65845C10.4871 9.51673 10.4201 9.30846 10.2482 9.24596L8.86374 8.74251C8.75514 8.70302 8.63494 8.73636 8.54658 8.81083C8.41527 8.92151 8.25114 9.0185 8.0542 9.10183C7.79196 9.20672 7.47727 9.25917 7.11014 9.25917C6.66958 9.25917 6.26573 9.12281 5.89859 8.85008C5.61048 8.62975 5.42505 8.32043 5.3423 7.92212C5.30913 7.76243 5.43995 7.6228 5.60305 7.6228H10.8107C10.9591 7.6228 11.0825 7.50688 11.0853 7.35843C11.1006 6.54372 10.9661 5.8189 10.6818 5.18397C10.3671 4.47068 9.90036 3.91473 9.28148 3.51613V3.51613C9.18411 3.45066 9.22846 3.27588 9.34579 3.27588L12.32 3.27588C12.4746 3.27588 12.6 3.40124 12.6 3.55588V10.4625C12.6 10.6172 12.4746 10.7425 12.32 10.7425H9.05654ZM5.62174 6.20671C5.45197 6.20671 5.3192 6.05586 5.36415 5.89214C5.46722 5.51673 5.65586 5.23347 5.93006 5.04236C6.28671 4.8011 6.69056 4.68047 7.14161 4.68047C7.60315 4.68047 8.00175 4.81159 8.33742 5.07383C8.60654 5.27568 8.77115 5.55844 8.83125 5.92212C8.85683 6.07694 8.72768 6.20671 8.57076 6.20671H5.62174Z" fill="#961432"/>
</svg>
