<svg width="14" height="14" viewBox="0 0 14 14" fill="none" xmlns="http://www.w3.org/2000/svg">
<g clip-path="url(#clip0_1553_1347)">
<path d="M13.3635 6.37514L7.65174 0.639239C7.30019 0.286197 6.72899 0.285002 6.37593 0.63657L0.639264 6.34905C0.286208 6.70061 0.284989 7.27181 0.636542 7.62486L6.34826 13.3608C6.69981 13.7138 7.27101 13.715 7.62406 13.3634L13.3607 7.65095C13.7138 7.29939 13.715 6.72819 13.3635 6.37514Z" fill="#F05033"/>
<path d="M7.0199 5.33957C7.57576 5.33957 8.02637 4.89302 8.02637 4.34218C8.02637 3.79133 7.57576 3.34478 7.0199 3.34478C6.46404 3.34478 6.01343 3.79133 6.01343 4.34218C6.01343 4.89302 6.46404 5.33957 7.0199 5.33957Z" fill="white"/>
<path d="M9.81018 8.10465C10.366 8.10465 10.8167 7.6581 10.8167 7.10725C10.8167 6.55641 10.366 6.10986 9.81018 6.10986C9.25432 6.10986 8.80371 6.55641 8.80371 7.10725C8.80371 7.6581 9.25432 8.10465 9.81018 8.10465Z" fill="white"/>
<path d="M7.00836 10.853C7.56422 10.853 8.01484 10.4064 8.01484 9.8556C8.01484 9.30475 7.56422 8.8582 7.00836 8.8582C6.4525 8.8582 6.00189 9.30475 6.00189 9.8556C6.00189 10.4064 6.4525 10.853 7.00836 10.853Z" fill="white"/>
<path d="M9.8586 7.17813L4.80389 2.20287L9.8586 7.17813Z" fill="white"/>
<path d="M9.8586 7.17813L4.80389 2.20287" stroke="white" stroke-width="0.8"/>
<path d="M6.99908 9.8135L7.01157 4.42072L6.99908 9.8135Z" fill="white"/>
<path d="M6.99908 9.8135L7.01157 4.42072" stroke="white" stroke-width="0.8"/>
</g>
<defs>
<clipPath id="clip0_1553_1347">
<rect width="14" height="14" fill="white"/>
</clipPath>
</defs>
</svg>
