<svg width="14" height="14" viewBox="0 0 14 14" fill="none" xmlns="http://www.w3.org/2000/svg">
<path d="M3.40729 4.70187C3.23347 4.70187 3.06355 4.65021 2.91902 4.55344C2.7745 4.45666 2.66185 4.31911 2.59534 4.15818C2.52882 3.99725 2.51141 3.82017 2.54532 3.64933C2.57923 3.47849 2.66294 3.32156 2.78585 3.19839C2.90876 3.07522 3.06535 2.99134 3.23583 2.95735C3.40631 2.92337 3.58302 2.94081 3.74361 3.00747C3.90419 3.07413 4.04145 3.18701 4.13802 3.33185C4.23459 3.47668 4.28613 3.64696 4.28613 3.82115C4.28587 4.05465 4.1932 4.27851 4.02844 4.44362C3.86368 4.60873 3.64029 4.7016 3.40729 4.70187Z" fill="#4D64AE"/>
<path d="M4.09555 9.29488C4.10596 9.60263 4.06218 9.90981 3.96619 10.2023C3.89782 10.4097 3.77421 10.5945 3.60872 10.7367C3.44803 10.8687 3.2563 10.9572 3.05179 10.994C2.81367 11.0403 2.57151 11.0625 2.32896 11.0603C2.16943 11.0619 2.01019 11.0463 1.85399 11.0138C1.73201 10.9891 1.61425 10.9467 1.50443 10.8881C1.42032 10.8445 1.34786 10.7814 1.29311 10.704C1.24506 10.642 1.21869 10.5658 1.21806 10.4873C1.21716 10.4233 1.23083 10.3599 1.25803 10.3019C1.28524 10.244 1.32526 10.193 1.37507 10.1528C1.49684 10.0581 1.6487 10.0106 1.80264 10.0192C1.86565 10.0179 1.92833 10.0286 1.9873 10.0509C2.0377 10.0704 2.08521 10.0967 2.12851 10.1291C2.16897 10.1618 2.20723 10.1972 2.24305 10.235C2.27366 10.2746 2.30131 10.3112 2.32501 10.3458C2.36714 10.4038 2.41735 10.4555 2.47412 10.4992C2.50774 10.5224 2.54697 10.536 2.58768 10.5388C2.62256 10.5392 2.65683 10.5296 2.68643 10.5111C2.71956 10.4863 2.74408 10.4516 2.75654 10.4121C2.77823 10.3512 2.79151 10.2876 2.79604 10.2231C2.80798 10.1226 2.81326 10.0215 2.81184 9.92029V5.30196L4.09555 4.9477V9.29488Z" fill="white"/>
<path d="M6.79796 10.5955C6.4504 10.5951 6.11077 10.4915 5.82197 10.2977C5.53318 10.1039 5.3082 9.8287 5.17547 9.50681C5.04274 9.18491 5.00821 8.83081 5.07625 8.48925C5.1443 8.1477 5.31186 7.83403 5.55775 7.58788C5.80365 7.34174 6.11684 7.17417 6.45775 7.10637C6.79866 7.03856 7.15197 7.07356 7.47303 7.20694C7.79409 7.34032 8.06849 7.56608 8.26154 7.85571C8.45459 8.14533 8.55763 8.48581 8.55763 8.8341C8.55711 9.30145 8.37148 9.74947 8.04154 10.0797C7.71159 10.41 7.26431 10.5955 6.79796 10.5955Z" fill="#CA3C32"/>
<path d="M11.0223 10.5955C10.6748 10.5951 10.3352 10.4915 10.0464 10.2977C9.75757 10.1039 9.53259 9.8287 9.39986 9.50681C9.26712 9.18491 9.2326 8.83081 9.30064 8.48925C9.36869 8.1477 9.53625 7.83403 9.78214 7.58788C10.028 7.34174 10.3412 7.17417 10.6821 7.10637C11.023 7.03856 11.3764 7.07356 11.6974 7.20694C12.0185 7.34032 12.2929 7.56608 12.4859 7.85571C12.679 8.14533 12.782 8.48581 12.782 8.8341C12.7815 9.30145 12.5959 9.74947 12.2659 10.0797C11.936 10.41 11.4887 10.5955 11.0223 10.5955Z" fill="#9259A3"/>
<path d="M8.91114 6.92819C8.5635 6.92819 8.22367 6.82489 7.93462 6.63134C7.64557 6.43779 7.42028 6.16269 7.28724 5.84083C7.15421 5.51897 7.1194 5.1648 7.18722 4.82312C7.25504 4.48143 7.42244 4.16757 7.66826 3.92123C7.91408 3.67489 8.22727 3.50713 8.56823 3.43917C8.90919 3.3712 9.26261 3.40608 9.58378 3.5394C9.90496 3.67272 10.1795 3.89849 10.3726 4.18815C10.5658 4.47782 10.6688 4.81838 10.6688 5.16676C10.6691 5.39814 10.6238 5.62731 10.5356 5.84114C10.4473 6.05496 10.3179 6.24924 10.1546 6.41286C9.99133 6.57648 9.79746 6.70621 9.58409 6.79464C9.37072 6.88307 9.14204 6.92845 8.91114 6.92819Z" fill="#399746"/>
</svg>
