<svg width="14" height="14" viewBox="0 0 14 14" fill="none" xmlns="http://www.w3.org/2000/svg">
<path d="M12.0651 12.0772L8.67692 12.626C8.58849 12.6403 8.50806 12.5777 8.51214 12.4977L8.9651 3.62046C8.97067 3.51131 9.11999 3.46093 9.20533 3.53941L9.80595 4.09172C9.8323 4.11595 9.86856 4.12963 9.90643 4.12963H10.8169C10.8866 4.12963 10.9456 4.17532 10.9554 4.23679L12.1786 11.9371C12.1891 12.0034 12.139 12.0652 12.0651 12.0772Z" fill="#608D40"/>
<path d="M9.90314 6.2981L8.88189 5.7996L8.97982 3.33203L10.4347 4.75275L10.099 5.3011L9.90314 6.2981Z" fill="#608D40"/>
<path d="M5.45999 4.8443L5.61078 4.0168C5.6673 3.70658 5.77844 3.40886 5.93903 3.13748L6.16319 2.75865C6.37635 2.39844 6.72279 2.13666 7.12752 2.02999L7.25808 1.99558C7.48368 1.93612 7.72199 1.9463 7.9417 2.0248V2.0248C8.24779 2.13416 8.49371 2.36732 8.6192 2.66716L9.23999 4.15038" stroke="#608D40" stroke-width="0.672"/>
<path d="M3.16399 6.02007L3.92412 3.67716C4.11889 3.07685 4.48348 2.54586 4.97377 2.14845L5.19688 1.96761C5.385 1.81513 5.6015 1.70148 5.83384 1.63323L6.24287 1.51308C6.54469 1.42443 6.87069 1.48468 7.12088 1.67537V1.67537C7.31143 1.82061 7.44277 2.0301 7.49047 2.26489L7.61806 2.89293C7.65392 3.06944 7.67199 3.2491 7.67199 3.42921V4.23378" stroke="#95BE44" stroke-width="0.672"/>
<path d="M2.74387 5.09926L1.84909 11.4611C1.83983 11.527 1.89 11.5878 1.96324 11.5994L8.41295 12.6261C8.49625 12.6393 8.57355 12.584 8.57716 12.5086L9.00922 3.49869C9.01334 3.41283 8.92114 3.34907 8.82896 3.37403L2.84197 4.99546C2.78917 5.00975 2.75074 5.05042 2.74387 5.09926Z" fill="#95BE44"/>
<path d="M5.06251 4.42188L6.55644 7.08743C6.55707 7.08856 6.55761 7.08972 6.55804 7.09092L8.52245 12.5188C8.53203 12.5453 8.57566 12.54 8.57699 12.5122L9.01597 3.35806C9.01679 3.34089 8.99837 3.32814 8.97993 3.33312L5.07941 4.38685C5.06283 4.39133 5.05476 4.40805 5.06251 4.42188Z" fill="#95BE44"/>
</svg>
