<svg width="14" height="14" viewBox="0 0 14 14" fill="none" xmlns="http://www.w3.org/2000/svg">
<path fill-rule="evenodd" clip-rule="evenodd" d="M4.69593 7.34426C4.74966 7.25064 4.88464 7.25047 4.9386 7.34395L7.42499 11.651C7.47858 11.7438 7.41224 11.86 7.30505 11.861L6.37323 11.8697C6.32261 11.8702 6.27567 11.8433 6.25048 11.7994L5.68366 10.8113C5.63003 10.7178 5.4953 10.7175 5.44116 10.8107L4.86999 11.794C4.84492 11.8371 4.79878 11.8637 4.74887 11.8637L4.28729 11.8635C4.23735 11.8635 4.1912 11.8368 4.16618 11.7936L3.92826 11.3826C3.9031 11.3391 3.90316 11.2855 3.92841 11.2421L4.89188 9.58539C4.91705 9.5421 4.91719 9.48867 4.89224 9.44525L4.23081 8.29424C4.20601 8.25107 4.20599 8.19798 4.23077 8.1548L4.69593 7.34426Z" fill="#5078C8"/>
<path fill-rule="evenodd" clip-rule="evenodd" d="M5.80162 5.18652L3.19318 9.70395C3.13959 9.79677 3.00582 9.7974 2.95136 9.70508L2.47788 8.90247C2.45216 8.85886 2.45198 8.80477 2.47741 8.761L3.17155 7.56638L1.79184 7.56275C1.74194 7.56262 1.69587 7.53594 1.67094 7.49271L1.44031 7.09287C1.41536 7.04961 1.41534 6.99633 1.44026 6.95306L1.67727 6.5415C1.70234 6.49797 1.7488 6.47121 1.79903 6.47136L3.79643 6.47767L4.54347 5.18979L5.80162 5.18652Z" fill="#82BEE6"/>
<path fill-rule="evenodd" clip-rule="evenodd" d="M6.01093 8.96387L11.2273 8.96412C11.3345 8.96413 11.402 9.07966 11.3492 9.17298L10.8909 9.98434C10.866 10.0284 10.8192 10.0556 10.7686 10.0555L9.38698 10.0516L10.0737 11.2483C10.0985 11.2916 10.0984 11.3448 10.0735 11.388L9.84252 11.7877C9.81754 11.8309 9.77141 11.8576 9.72147 11.8576L9.24654 11.8582C9.19631 11.8582 9.1499 11.8314 9.12492 11.7878L8.13169 10.0549L6.64283 10.0518L6.01093 8.96387Z" fill="#82BEE6"/>
<path fill-rule="evenodd" clip-rule="evenodd" d="M9.18669 6.89343L6.57869 2.37575C6.52511 2.28292 6.59145 2.16677 6.69863 2.16576L7.63045 2.15702C7.68108 2.15654 7.72801 2.18344 7.7532 2.22735L8.4407 3.42579L9.1337 2.23275C9.15876 2.18959 9.20491 2.16305 9.25481 2.16307L9.71639 2.16325C9.76633 2.16327 9.81248 2.18989 9.8375 2.23311L10.0754 2.64415C10.1006 2.68762 10.1005 2.74124 10.0753 2.78467L9.07111 4.51131L9.81293 5.8022L9.18669 6.89343Z" fill="#82BEE6"/>
<path fill-rule="evenodd" clip-rule="evenodd" d="M4.817 7.1333L7.42499 11.651C7.47858 11.7438 7.41224 11.86 7.30505 11.861L6.37323 11.8697C6.3226 11.8702 6.27567 11.8433 6.25048 11.7994L5.56298 10.6009L4.86999 11.794C4.84492 11.8371 4.79878 11.8637 4.74887 11.8637L4.28729 11.8635C4.23735 11.8635 4.1912 11.8368 4.16618 11.7936L3.92826 11.3826C3.9031 11.3391 3.90316 11.2855 3.92841 11.2421L4.93257 9.51542L4.19075 8.22453L4.817 7.1333Z" fill="#5078C8"/>
<path fill-rule="evenodd" clip-rule="evenodd" d="M7.9855 5.05064L2.76907 5.05039C2.66189 5.05038 2.59447 4.93485 2.64719 4.84153L3.10553 4.03017C3.13043 3.98609 3.17719 3.95889 3.22781 3.95903L4.60945 3.96286L3.92273 2.76619C3.89789 2.72291 3.89797 2.66967 3.92294 2.62646L4.1539 2.22681C4.17889 2.18357 4.22502 2.15692 4.27496 2.15686L4.74988 2.15634C4.80011 2.15628 4.84652 2.18314 4.8715 2.22672L5.86474 3.95967L7.35359 3.96269L7.9855 5.05064Z" fill="#5078C8"/>
<path fill-rule="evenodd" clip-rule="evenodd" d="M8.19836 8.83892L10.8068 4.3215C10.8604 4.22867 10.9942 4.22805 11.0486 4.32037L11.5221 5.12298C11.5478 5.16659 11.548 5.22068 11.5226 5.26445L10.8284 6.45907L12.2081 6.46269C12.258 6.46282 12.3041 6.48951 12.329 6.53274L12.5597 6.93257C12.5846 6.97583 12.5846 7.02911 12.5597 7.07239L12.3227 7.48395C12.2976 7.52748 12.2512 7.55424 12.2009 7.55408L10.2036 7.54778L9.45651 8.83565L8.19836 8.83892Z" fill="#5078C8"/>
</svg>
