<svg width="14" height="14" viewBox="0 0 14 14" fill="none" xmlns="http://www.w3.org/2000/svg">
<rect x="1.39999" y="1.40039" width="11.2" height="11.2" rx="2.67943" fill="#3264C8"/>
<path d="M2.60375 8.00049V6.42541H3.20973C3.34648 6.42541 3.46831 6.43956 3.5752 6.46786C3.68366 6.49615 3.76855 6.54724 3.82985 6.62112C3.89273 6.695 3.92417 6.80111 3.92417 6.93944C3.92417 7.07619 3.89273 7.1823 3.82985 7.25775C3.76855 7.33163 3.68366 7.38272 3.5752 7.41101C3.46831 7.43931 3.34648 7.45346 3.20973 7.45346H2.97629V8.00049H2.60375ZM2.97629 7.14457H3.22152C3.27968 7.14457 3.33155 7.13907 3.37714 7.12807C3.42429 7.11706 3.46124 7.09663 3.48796 7.06676C3.51625 7.0369 3.5304 6.99445 3.5304 6.93944C3.5304 6.88442 3.51625 6.84276 3.48796 6.81447C3.46124 6.7846 3.42429 6.76495 3.37714 6.75552C3.33155 6.74452 3.27968 6.73901 3.22152 6.73901H2.97629V7.14457ZM3.79436 8.00049L4.3909 6.42541H4.80118L5.39772 8.00049H4.99217L4.89785 7.7199H4.29423L4.19991 8.00049H3.79436ZM4.39562 7.41809H4.79646L4.59368 6.81918L4.39562 7.41809ZM6.15091 8.02878C5.97956 8.02878 5.83495 7.9942 5.71705 7.92504C5.60073 7.8543 5.5182 7.75605 5.46947 7.6303L5.80901 7.50769C5.83102 7.58314 5.87189 7.63894 5.93162 7.6751C5.99293 7.71125 6.06681 7.72933 6.15326 7.72933C6.19885 7.72933 6.24286 7.72461 6.28531 7.71518C6.32775 7.70418 6.36312 7.68689 6.39141 7.66331C6.41971 7.63816 6.43385 7.60515 6.43385 7.56428C6.43385 7.50926 6.40713 7.46682 6.35368 7.43695C6.30024 7.40551 6.23107 7.38193 6.14619 7.36621L5.9552 7.32849C5.87032 7.3112 5.79093 7.28526 5.71705 7.25068C5.64474 7.21452 5.58658 7.16737 5.54257 7.1092C5.49855 7.04947 5.47655 6.9748 5.47655 6.8852C5.47655 6.80032 5.4962 6.72723 5.53549 6.66592C5.57479 6.60461 5.62667 6.55431 5.69112 6.51501C5.75714 6.47572 5.82945 6.44664 5.90804 6.42777C5.98664 6.40734 6.06524 6.39712 6.14383 6.39712C6.22872 6.39712 6.31046 6.40891 6.38905 6.43249C6.46922 6.45607 6.54074 6.49301 6.60362 6.54331C6.6665 6.59204 6.71444 6.65727 6.74745 6.73901L6.41027 6.86163C6.38984 6.80818 6.3529 6.76731 6.29945 6.73901C6.24758 6.71072 6.1847 6.69657 6.11082 6.69657C6.03851 6.69657 5.97799 6.70993 5.92926 6.73666C5.88211 6.76181 5.85853 6.79875 5.85853 6.84748C5.85853 6.88678 5.87503 6.92057 5.90804 6.94887C5.94105 6.97716 5.98428 6.99681 6.03773 7.00781L6.24994 7.05026C6.31439 7.06283 6.37962 7.07934 6.44564 7.09977C6.51166 7.11864 6.57218 7.14457 6.6272 7.17758C6.68379 7.20902 6.72938 7.25146 6.76396 7.30491C6.79854 7.35835 6.81583 7.42595 6.81583 7.50769C6.81583 7.591 6.79618 7.66567 6.75688 7.73169C6.71916 7.79614 6.66807 7.85037 6.60362 7.89438C6.54074 7.9384 6.47001 7.97219 6.39141 7.99577C6.31281 8.01778 6.23265 8.02878 6.15091 8.02878ZM7.74046 8.02878C7.57698 8.02878 7.43629 7.99577 7.31839 7.92975C7.2005 7.86373 7.11011 7.76941 7.04724 7.6468C6.98436 7.52419 6.95292 7.37958 6.95292 7.21295C6.95292 7.04633 6.98515 6.9025 7.04959 6.78146C7.11562 6.65885 7.20836 6.56453 7.32783 6.49851C7.44729 6.43092 7.58798 6.39712 7.74989 6.39712C7.89922 6.39712 8.02891 6.43013 8.13894 6.49615C8.25055 6.56217 8.33622 6.65099 8.39595 6.76259L8.06585 6.88285C8.03126 6.8184 7.98411 6.77281 7.92437 6.74609C7.86464 6.71779 7.80255 6.70365 7.7381 6.70365C7.66579 6.70365 7.59977 6.72408 7.54004 6.76495C7.4803 6.80425 7.43315 6.86241 7.39856 6.93944C7.36398 7.01489 7.34669 7.10606 7.34669 7.21295C7.34669 7.378 7.38442 7.50454 7.45987 7.59257C7.53689 7.67903 7.63121 7.72226 7.74282 7.72226C7.80255 7.72226 7.86385 7.70968 7.92673 7.68453C7.99118 7.65938 8.04148 7.61301 8.07764 7.54541L8.40538 7.66567C8.34251 7.77727 8.25291 7.86609 8.13658 7.93211C8.02183 7.99656 7.88979 8.02878 7.74046 8.02878ZM8.4687 8.00049L9.06524 6.42541H9.47552L10.0721 8.00049H9.66651L9.57219 7.7199H8.96857L8.87426 8.00049H8.4687ZM9.06996 7.41809H9.4708L9.26802 6.81918L9.06996 7.41809ZM10.1886 8.00049V6.42541H10.5612V7.67274H11.3157V8.00049H10.1886Z" fill="white"/>
</svg>
