<svg width="14" height="14" viewBox="0 0 14 14" fill="none" xmlns="http://www.w3.org/2000/svg">
<g clip-path="url(#clip0_2038_1570)">
<path fill-rule="evenodd" clip-rule="evenodd" d="M14.4613 4.26517C14.4955 4.35168 14.5276 4.43915 14.5587 4.52714C14.5595 4.54231 14.56 4.5567 14.56 4.56988C14.56 4.63886 14.56 4.82277 14.5022 4.85748C14.445 4.89185 14.3529 5.11047 14.2835 5.11047C14.2146 5.11047 14.0996 5.19118 14.0307 5.29448C13.9616 5.39812 13.9157 5.65108 13.9157 5.65108L13.7893 5.85815L13.628 5.90407L13.467 6.2837L13.4558 6.72049L13.398 8.61832L13.605 8.41138L13.6857 7.97438C13.7118 7.99618 13.7378 8.03291 13.7637 8.07306L13.7601 8.12492C13.7601 8.12492 13.7255 8.79167 13.7255 8.86073C13.7255 8.92963 13.6222 9.27502 13.6222 9.27502L13.5645 9.59685H13.8174C13.8174 9.59685 13.944 9.43597 13.9784 9.35531C14.0131 9.27502 14.0014 8.87244 14.0014 8.87244C14.0014 8.87244 14.0614 8.46038 14.0949 8.23241C14.1187 8.22312 14.1343 8.21605 14.1343 8.21605L14.4103 8.52631C14.4103 8.52631 14.2609 8.77969 14.2953 8.87157C14.33 8.96358 14.4792 9.2278 14.4792 9.2278C14.4792 9.2278 14.2033 9.37758 14.2953 9.46948C14.3466 9.52086 14.4643 9.59183 14.5582 9.64458C14.3641 10.1936 14.1096 10.7147 13.8024 11.1993H12.497C12.5067 11.1829 12.5125 11.1719 12.5125 11.1719L12.6274 11.0567C12.6274 11.0567 12.8462 10.9073 12.9724 10.8726C13.0991 10.8383 13.2947 10.7117 13.2947 10.7117L13.5478 10.5276V10.355L13.7776 10.2517L13.8467 10.1138L13.582 9.8491C13.582 9.8491 13.5247 9.79144 13.4211 9.81447C13.3178 9.83739 13.0414 9.92977 13.0414 9.92977L12.9034 10.033L12.6852 10.1021L12.3515 10.1711L12.2019 10.0791L11.9147 9.92977L11.6843 9.88379L11.604 10.1711L11.6612 10.4358L11.696 10.6886L11.5693 10.9072L11.4201 11.1489L11.4543 11.4479L11.4431 11.8618L11.374 12.2988L11.3394 12.69L11.3051 13.0696V13.472L11.2972 13.6674C11.0527 13.8173 10.7992 13.9536 10.5379 14.076H9.20989C9.18051 13.6398 9.15016 13.1388 9.14512 12.6374H9.93368L10.1459 13.8367L10.5458 13.963L10.9484 12.9199L11.0977 11.7122L10.8908 11.5629L11.0174 11.0913L10.8677 10.7347L10.6262 10.6314L10.6725 10.4126L10.5227 10.47L10.5458 10.1021L10.3848 10.2861L10.2468 10.0447L10.0742 9.95282L10.1089 9.37758C10.0473 9.12456 9.98614 8.87157 9.92452 8.61832C9.86722 8.60697 9.80959 8.59526 9.75219 8.58397L9.67163 9.00955L9.56831 9.17061L9.33795 8.77969L9.10799 8.76798L9.48599 9.31913L9.24508 10.0549L9.11841 10.1238L8.52224 9.97488L8.43557 10.269L8.17087 10.0852L7.96157 9.76752L7.85788 9.92848H7.53591L7.43269 10.1931L7.09208 10.0311L6.81339 9.99368C6.35299 9.91299 5.47576 9.35565 5.32032 8.86931C5.29879 8.79984 5.27794 8.67506 5.25817 8.55593C5.24278 8.46329 5.22802 8.37402 5.21408 8.31694C5.07586 7.75109 5.01466 7.28991 5.17874 6.5897C5.50407 5.35227 5.96945 4.74607 6.06802 4.28321C6.08627 4.1975 6.762 3.867 6.75195 3.78805C6.54756 3.82688 6.26437 4.00365 6.06009 3.93729L6.67126 3.55278C6.34551 3.63268 6.37452 3.67488 6.04883 3.64967L6.8789 3.2524L5.74007 3.42301C5.73953 3.4133 5.46964 3.25833 4.90879 3.13032L4.01079 3.19636L3.9396 2.84977L4.24915 2.6959L3.84311 2.70377L3.68711 2.46775L3.94331 2.15059L4.62048 2.04692L5.56551 2.02783L5.76123 2.16629C6.03562 2.06478 6.15724 2.16915 6.29486 2.34127C6.33193 2.52982 6.05059 2.15032 5.91657 2.30464L5.95514 2.61232C6.3166 2.578 6.65997 2.64593 6.81615 2.38567C6.92065 2.11803 6.8104 1.89135 6.48538 1.70555L6.39059 1.93709L6.09178 2.03369L6.00666 1.76859L6.62486 1.38012L7.01465 1.34501L7.51099 1.47958L7.9371 1.88211C8.11279 2.03828 7.16781 2.27431 8.09338 2.77333L7.438 3.12891C7.3357 3.18439 8.21335 3.05772 8.04677 3.61816C8.17071 3.89428 7.62159 3.64762 6.94302 4.34627C7.1723 4.66058 7.79127 4.05429 7.01329 4.74694L8.08062 4.36752L8.08359 4.51031C7.87442 4.56883 7.33843 4.79507 6.92855 4.90469C7.26417 4.99727 7.83679 4.90306 8.07705 4.72816L8.04759 5.3205L7.72433 5.6922L7.41371 5.77249L7.5864 6.04891L7.52874 6.27887L7.26404 6.43975L7.65105 6.47438L7.47063 6.66314L6.91941 6.79349L7.51982 6.77912C7.74319 6.98635 7.24335 7.01307 6.88581 7.09481C7.30109 7.1426 7.66625 7.17025 7.68112 7.05787L7.72092 7.1226C7.98735 7.45827 7.34665 7.3545 7.00276 7.46C7.51911 7.56214 7.89411 7.58107 7.95823 7.41715C8.06245 7.60347 8.06169 7.57044 8.06749 7.60765C8.0849 7.71945 7.58016 7.88296 7.20575 8.08713C7.06236 8.16533 8.15354 8.11221 8.42491 7.69514C8.49197 7.59202 7.83708 8.24203 8.60503 7.75603C8.66377 7.71887 8.6576 7.87469 8.71282 7.79029C8.75491 7.82889 8.68633 7.97086 8.72847 7.70971C8.80514 8.29596 9.03662 8.41871 9.33795 8.33098C9.38388 8.28506 9.42996 8.23898 9.4763 8.19303C9.33063 7.90929 9.18477 7.62561 9.03904 7.34179C9.22226 7.55852 9.3582 7.68125 9.16573 7.1462C9.34572 7.29584 9.52577 7.44511 9.70626 7.59475C9.75219 7.5566 9.79827 7.51798 9.84419 7.47975C9.70159 7.27355 9.55859 7.06748 9.41586 6.86131C9.3933 6.64847 9.46459 6.54869 9.62949 6.56071C9.72926 6.60869 9.82944 6.65692 9.92964 6.705C9.97243 6.70812 10.0158 6.71117 10.0586 6.7139C9.91945 6.56578 9.5885 6.22756 9.67812 5.81206L10.5294 4.97254L11.0405 5.36348L11.1094 5.40944L11.1901 5.59334L11.374 5.76612L11.5923 6.00768L12.3398 6.19169L12.4435 6.20293L12.3628 5.96173L12.4665 5.74311L12.7194 5.5821C12.7194 5.5821 12.3975 5.5821 12.3398 5.59334C12.2825 5.60503 11.7419 5.61648 11.7419 5.61648L11.489 5.60503L11.374 5.43244L11.5464 5.50144H11.7302L11.811 5.39812L11.8222 5.19118L11.6153 5.04152L11.7073 5.01849L11.9607 5.20247L12.0526 5.09915L11.9607 4.97244L11.7073 4.63886L11.466 4.08693L11.4543 4.0293L11.949 3.75336L12.1675 3.58077L12.4552 3.51169L12.7082 3.31599L12.8804 3.30475L13.1108 3.53472L13.4211 3.8106L13.628 4.07522L13.8467 4.34003L14.0076 4.52391L14.0884 4.27097L14.2263 4.35113L14.2835 4.13299L14.4219 4.32821L14.4613 4.26517ZM9.91355 12.5237L9.69932 11.3131H9.21432C9.16162 11.6883 9.1435 12.1044 9.14442 12.5237H9.91355ZM9.67918 11.1993L9.67164 11.1567L9.51441 11.1993H9.67918ZM13.1602 7.85394L13.2522 8.22225C13.2522 8.22225 13.1486 8.50959 13.1373 8.57843C13.1256 8.64754 13.1143 8.92382 13.1143 9.00414C13.1143 9.0848 13.1026 9.48744 13.1026 9.48744L12.8609 10.005L12.8036 9.7174L12.7001 9.45272L12.5277 9.03886V8.56722C12.5277 8.56722 12.5047 8.32557 12.5737 8.29131C12.6427 8.2566 12.7689 8.16459 12.7689 8.16459L12.9877 8.02664L13.1602 7.85394Z" fill="white"/>
</g>
<defs>
<clipPath id="clip0_2038_1570">
<rect width="14" height="14" fill="white"/>
</clipPath>
</defs>
</svg>
