<svg width="14" height="14" viewBox="0 0 14 14" fill="none" xmlns="http://www.w3.org/2000/svg">
<g clip-path="url(#clip0_2038_1560)">
<path opacity="0.62" d="M7.01138 8.97344C8.1074 8.97344 8.9959 8.08494 8.9959 6.98892C8.9959 5.89289 8.1074 5.00439 7.01138 5.00439C5.91536 5.00439 5.02686 5.89289 5.02686 6.98892C5.02686 8.08494 5.91536 8.97344 7.01138 8.97344Z" fill="#50B0D9"/>
<path d="M11.6969 7.9415L11.6866 7.93319L10.9963 7.39178C10.9525 7.3572 10.9176 7.31274 10.8944 7.26205C10.8712 7.21135 10.8604 7.15589 10.8628 7.10019V6.84732C10.8606 6.79198 10.8716 6.73691 10.8948 6.68663C10.9181 6.63636 10.9529 6.59232 10.9965 6.55813L11.6866 6.0165L11.6969 6.00819C11.8033 5.91952 11.8748 5.79589 11.8984 5.65939C11.9221 5.52289 11.8964 5.38243 11.826 5.26313L10.8917 3.64657C10.8906 3.64504 10.8897 3.64343 10.8888 3.64175C10.8181 3.5241 10.7083 3.43496 10.5786 3.3898C10.449 3.34465 10.3076 3.34633 10.179 3.39457L10.1713 3.39741L9.35978 3.724C9.30856 3.74471 9.25315 3.75296 9.19812 3.74805C9.14308 3.74314 9.09 3.72523 9.04325 3.69579C8.9715 3.65058 8.89859 3.60785 8.8245 3.5676C8.77647 3.54155 8.73523 3.50458 8.70411 3.45967C8.67299 3.41475 8.65286 3.36316 8.64535 3.30904L8.52306 2.443L8.52044 2.42725C8.49382 2.29312 8.42184 2.17223 8.31659 2.08491C8.21135 1.99759 8.07925 1.94916 7.9425 1.94775H6.07175C5.93308 1.9482 5.79901 1.99757 5.69317 2.08716C5.58732 2.17676 5.51649 2.30084 5.49316 2.43754L5.49119 2.44979L5.36935 3.31757C5.36187 3.37153 5.3419 3.42301 5.31103 3.4679C5.28015 3.51279 5.23922 3.54985 5.1915 3.57613C5.1172 3.61615 5.04425 3.65861 4.97275 3.70344C4.92608 3.73271 4.87314 3.75048 4.81827 3.75531C4.76339 3.76014 4.70816 3.75189 4.6571 3.73122L3.84488 3.4031L3.83722 3.40004C3.70848 3.35175 3.56688 3.35013 3.43707 3.39545C3.30725 3.44078 3.19743 3.53018 3.12672 3.6481L3.12388 3.65291L2.18828 5.27057C2.11777 5.38999 2.09203 5.5306 2.11567 5.66726C2.13932 5.80392 2.2108 5.92772 2.31735 6.0165L2.32763 6.02482L3.018 6.56622C3.06172 6.60081 3.09661 6.64527 3.11981 6.69596C3.14301 6.74665 3.15385 6.80212 3.15144 6.85782V7.11069C3.15363 7.16603 3.14266 7.2211 3.11942 7.27137C3.09619 7.32165 3.06135 7.36569 3.01778 7.39988L2.32763 7.9415L2.31735 7.94982C2.21091 8.03848 2.13948 8.16212 2.11584 8.29862C2.09219 8.43512 2.11787 8.57558 2.18828 8.69488L3.12256 10.3114C3.12364 10.313 3.12459 10.3146 3.12541 10.3163C3.1962 10.4339 3.30596 10.523 3.43563 10.5682C3.5653 10.6134 3.70669 10.6117 3.83525 10.5634L3.84291 10.5606L4.65381 10.234C4.70504 10.2133 4.76045 10.2051 4.81548 10.21C4.87052 10.2149 4.92359 10.2328 4.97035 10.2622C5.0421 10.3076 5.11501 10.3503 5.1891 10.3904C5.23713 10.4165 5.27837 10.4534 5.30949 10.4983C5.34061 10.5433 5.36074 10.5949 5.36825 10.649L5.48988 11.515L5.4925 11.5308C5.51917 11.6651 5.59134 11.7862 5.69686 11.8735C5.80237 11.9609 5.93478 12.0092 6.07175 12.0103H7.9425C8.08118 12.0098 8.21524 11.9604 8.32109 11.8708C8.42693 11.7812 8.49776 11.6572 8.5211 11.5205L8.52306 11.5082L8.64491 10.6404C8.6525 10.5864 8.67264 10.5348 8.70371 10.4899C8.73478 10.445 8.77592 10.408 8.82385 10.3819C8.89866 10.3416 8.97172 10.299 9.0426 10.2546C9.08926 10.2253 9.14221 10.2075 9.19708 10.2027C9.25195 10.1979 9.30719 10.2061 9.35825 10.2268L10.1705 10.5538L10.1781 10.5569C10.3069 10.6053 10.4485 10.6069 10.5783 10.5616C10.7082 10.5163 10.818 10.4268 10.8886 10.3088C10.8895 10.3072 10.8904 10.3056 10.8915 10.304L11.8258 8.68766C11.8964 8.56825 11.9222 8.42759 11.8986 8.29087C11.875 8.15416 11.8035 8.03031 11.6969 7.9415ZM8.75516 7.06125C8.73923 7.40001 8.62522 7.72683 8.42699 8.00199C8.22875 8.27714 7.95485 8.48877 7.63857 8.61115C7.32229 8.73352 6.97727 8.76136 6.64547 8.69128C6.31366 8.6212 6.00936 8.45623 5.76958 8.21641C5.5298 7.9766 5.36486 7.67228 5.29482 7.34047C5.22478 7.00866 5.25266 6.66364 5.37507 6.34738C5.49748 6.03111 5.70914 5.75723 5.98432 5.55903C6.2595 5.36084 6.58634 5.24686 6.9251 5.23097C7.16829 5.22027 7.41106 5.26028 7.63795 5.34848C7.86485 5.43667 8.07091 5.57111 8.24303 5.74326C8.41515 5.9154 8.54957 6.12148 8.63774 6.34838C8.72591 6.57529 8.7659 6.81806 8.75516 7.06125Z" fill="#50B0D9"/>
</g>
<defs>
<clipPath id="clip0_2038_1560">
<rect width="11.2" height="11.2" fill="white" transform="translate(1.39996 1.40039)"/>
</clipPath>
</defs>
</svg>
