<svg width="14" height="14" viewBox="0 0 14 14" fill="none" xmlns="http://www.w3.org/2000/svg">
<path d="M11.2599 7.67302C10.8458 7.67533 10.4872 7.77479 10.1865 7.92282C10.0754 7.70309 9.96436 7.51111 9.94585 7.36771C9.92503 7.20117 9.89958 7.0994 9.92503 6.90049C9.95048 6.70157 10.0662 6.41939 10.0662 6.39626C10.0638 6.37544 10.0407 6.27367 9.80241 6.27136C9.56413 6.26905 9.35823 6.31762 9.33509 6.38007C9.31196 6.44252 9.26569 6.58592 9.23561 6.73395C9.19397 6.95137 8.75903 7.72159 8.51149 8.12636C8.43052 7.96908 8.36111 7.8303 8.34723 7.71928C8.32641 7.55275 8.30096 7.45098 8.32641 7.25206C8.35186 7.05314 8.46753 6.77096 8.46753 6.74783C8.46522 6.72702 8.44209 6.62524 8.2038 6.62293C7.96551 6.62062 7.75961 6.66919 7.73647 6.73164C7.71334 6.79409 7.68789 6.94212 7.63699 7.08553C7.58841 7.22893 7.01004 8.51494 6.85966 8.85032C6.78332 9.02148 6.71623 9.15795 6.66764 9.25047C6.61906 9.34299 6.66533 9.25741 6.6607 9.26666C6.61906 9.3453 6.59593 9.38925 6.59593 9.38925V9.39156C6.56354 9.44938 6.52884 9.50489 6.51264 9.50489C6.50107 9.50489 6.47794 9.34992 6.51727 9.13713C6.60287 8.69073 6.81108 7.99452 6.80877 7.96908C6.80877 7.95752 6.8481 7.83493 6.67459 7.77248C6.5057 7.71003 6.44555 7.81411 6.43167 7.81411C6.41779 7.81411 6.40622 7.85112 6.40622 7.85112C6.40622 7.85112 6.59361 7.06702 6.04763 7.06702C5.70524 7.06702 5.23329 7.43941 4.99962 7.77942C4.85156 7.86037 4.53693 8.03153 4.20379 8.21426C4.07654 8.28365 3.94467 8.35766 3.81975 8.42474L3.7943 8.39698C3.13264 7.69152 1.90881 7.19192 1.95971 6.2436C1.97821 5.89897 2.09852 4.98997 4.31021 3.889C6.12166 2.98694 7.57222 3.23443 7.82439 3.78492C8.18298 4.57133 7.04937 6.03312 5.16619 6.2436C4.44901 6.32456 4.07192 6.047 3.97706 5.94292C3.87758 5.83421 3.8637 5.82958 3.82669 5.8504C3.76654 5.88278 3.80355 5.97993 3.82669 6.03775C3.88221 6.18347 4.11356 6.44252 4.50685 6.57205C4.85156 6.68538 5.69367 6.74783 6.7116 6.35463C7.85215 5.91285 8.74284 4.68698 8.48142 3.66233C8.21537 2.61918 6.48488 2.27686 4.84925 2.85742C3.87527 3.20436 2.82032 3.7456 2.0615 4.45568C1.15924 5.2976 1.01581 6.03312 1.07596 6.33844C1.28648 7.42785 2.78793 8.13793 3.38944 8.66297C3.35936 8.67916 3.3316 8.69535 3.30615 8.70923C3.0054 8.85726 1.86023 9.45632 1.57335 10.0901C1.24947 10.8071 1.62425 11.3229 1.87411 11.3923C2.64681 11.6074 3.43802 11.2211 3.86602 10.5851C4.2917 9.94898 4.2408 9.12325 4.04415 8.74624L4.03721 8.73236L4.27319 8.59358C4.42588 8.50338 4.57626 8.42011 4.70812 8.34841C4.63409 8.54964 4.58088 8.78787 4.55312 9.13482C4.52073 9.5419 4.6873 10.0693 4.90708 10.2774C5.00425 10.3676 5.11992 10.3699 5.19164 10.3699C5.44613 10.3699 5.5618 10.1595 5.68904 9.90735C5.84636 9.59973 5.98517 9.24353 5.98517 9.24353C5.98517 9.24353 5.81166 10.208 6.28592 10.208C6.45943 10.208 6.63294 9.98368 6.7116 9.86803V9.87034C6.7116 9.87034 6.71623 9.8634 6.72548 9.84721C6.74399 9.81946 6.75324 9.80327 6.75324 9.80327V9.79864C6.82265 9.67837 6.97765 9.40312 7.209 8.94747C7.50744 8.35997 7.79431 7.62445 7.79431 7.62445C7.79431 7.62445 7.82207 7.80486 7.90767 8.10092C7.95857 8.27671 8.06962 8.46868 8.15521 8.65603C8.08581 8.75318 8.04417 8.80869 8.04417 8.80869L8.04648 8.811C7.99096 8.88502 7.92849 8.96366 7.86372 9.0423C7.62774 9.32448 7.3455 9.64599 7.30848 9.7385C7.26452 9.84721 7.27378 9.92817 7.35938 9.99293C7.42184 10.0392 7.53289 10.0484 7.65088 10.0392C7.86372 10.0253 8.01178 9.97211 8.08581 9.93973C8.20148 9.8981 8.33335 9.83565 8.46059 9.74313C8.69194 9.57197 8.83307 9.32911 8.81918 9.00529C8.81224 8.82719 8.75441 8.65141 8.68269 8.48487C8.70351 8.4548 8.72433 8.42474 8.74515 8.39235C9.11068 7.85806 9.39293 7.27056 9.39293 7.27056C9.39293 7.27056 9.42069 7.45098 9.50629 7.74704C9.55024 7.89738 9.63816 8.0616 9.71682 8.22351C9.37442 8.50338 9.15927 8.82719 9.08524 9.03999C8.94874 9.43319 9.05516 9.61129 9.25643 9.65292C9.34666 9.67143 9.47621 9.62979 9.57338 9.58816C9.69368 9.54884 9.83943 9.48176 9.97361 9.38231C10.205 9.21115 10.4271 8.97291 10.4155 8.65141C10.4085 8.50338 10.3692 8.35766 10.316 8.21888C10.6075 8.09861 10.9846 8.02922 11.4635 8.08704C12.493 8.20732 12.6966 8.85032 12.6573 9.11863C12.6179 9.38693 12.4028 9.53496 12.3311 9.58122C12.2593 9.62517 12.2362 9.64136 12.2431 9.67374C12.2524 9.72231 12.2848 9.72 12.3472 9.71075C12.4328 9.69687 12.8886 9.49102 12.9071 8.99604C12.9349 8.35997 12.3311 7.66608 11.2599 7.67302ZM3.32003 10.3491C2.97995 10.7215 2.50106 10.8626 2.29747 10.7423C2.07769 10.6151 2.16329 10.0669 2.58203 9.67143C2.83652 9.43088 3.16734 9.20883 3.38481 9.07237C3.4334 9.0423 3.50743 8.99835 3.59534 8.94516C3.60922 8.9359 3.61847 8.93128 3.61847 8.93128C3.63467 8.92203 3.65318 8.91046 3.67168 8.8989C3.82669 9.46326 3.67862 9.95824 3.32003 10.3491ZM5.80703 8.65835C5.68904 8.94747 5.43919 9.68993 5.28881 9.6483C5.15925 9.6136 5.0806 9.05155 5.26336 8.49644C5.3559 8.21657 5.55255 7.8835 5.66822 7.75397C5.85561 7.54581 6.0592 7.47642 6.1101 7.562C6.17025 7.67302 5.88106 8.47794 5.80703 8.65835ZM7.85909 9.63905C7.80819 9.66449 7.76192 9.68299 7.7411 9.66911C7.72491 9.65986 7.76192 9.62517 7.76192 9.62517C7.76192 9.62517 8.01872 9.34993 8.12051 9.22271C8.17835 9.1487 8.24775 9.06312 8.32179 8.96597V8.99373C8.32179 9.3268 8.00252 9.54884 7.85909 9.63905ZM9.44151 9.27822C9.4045 9.25047 9.40912 9.16489 9.53405 8.89658C9.58263 8.79019 9.69368 8.61209 9.8857 8.44324C9.90884 8.51263 9.92272 8.57971 9.9204 8.64216C9.91809 9.05849 9.62196 9.21346 9.44151 9.27822Z" fill="#CF649A"/>
</svg>
