<svg width="14" height="14" viewBox="0 0 14 14" fill="none" xmlns="http://www.w3.org/2000/svg">
<path d="M1.7602 2.03546C1.6276 2.15601 1.55001 2.32275 1.55001 2.5C1.55001 2.67725 1.6276 2.84399 1.7602 2.96454C1.89233 3.08466 2.06873 3.15 2.25001 3.15H10.5C10.6813 3.15 10.8577 3.08466 10.9898 2.96454C11.1224 2.84399 11.2 2.67725 11.2 2.5C11.2 2.32275 11.1224 2.15601 10.9898 2.03546C10.8577 1.91534 10.6813 1.85 10.5 1.85H2.25001C2.06873 1.85 1.89233 1.91534 1.7602 2.03546ZM1.7602 8.03546C1.62759 8.15601 1.55001 8.32275 1.55001 8.5C1.55001 8.67725 1.62759 8.84399 1.7602 8.96454C1.89233 9.08466 2.06873 9.15 2.25001 9.15H8.30001C8.48129 9.15 8.65769 9.08466 8.78982 8.96454C8.92243 8.84399 9.00001 8.67725 9.00001 8.5C9.00001 8.32275 8.92243 8.15601 8.78982 8.03546C8.65769 7.91534 8.48129 7.85 8.30001 7.85H2.25001C2.06873 7.85 1.89233 7.91534 1.7602 8.03546ZM2.25001 4.85C2.06873 4.85 1.89233 4.91534 1.7602 5.03546C1.6276 5.15601 1.55001 5.32275 1.55001 5.5C1.55001 5.67725 1.6276 5.84399 1.7602 5.96454C1.89233 6.08466 2.06873 6.15 2.25001 6.15H12.15C12.3313 6.15 12.5077 6.08466 12.6398 5.96454C12.7724 5.84399 12.85 5.67725 12.85 5.5C12.85 5.32275 12.7724 5.15601 12.6398 5.03546C12.5077 4.91534 12.3313 4.85 12.15 4.85H2.25001ZM1.7602 11.0355C1.62759 11.156 1.55001 11.3227 1.55001 11.5C1.55001 11.6773 1.62759 11.844 1.7602 11.9645C1.89233 12.0847 2.06873 12.15 2.25001 12.15H10.3C10.4813 12.15 10.6577 12.0847 10.7898 11.9645C10.9224 11.844 11 11.6773 11 11.5C11 11.3227 10.9224 11.156 10.7898 11.0355C10.6577 10.9153 10.4813 10.85 10.3 10.85H2.25001C2.06873 10.85 1.89233 10.9153 1.7602 11.0355Z" fill="url(#paint0_linear_1553_1374)" stroke="url(#paint1_linear_1553_1374)" stroke-width="0.3"/>
<defs>
<linearGradient id="paint0_linear_1553_1374" x1="7.20001" y1="2" x2="7.20001" y2="12" gradientUnits="userSpaceOnUse">
<stop stop-color="white"/>
<stop offset="1" stop-color="white" stop-opacity="0.52"/>
</linearGradient>
<linearGradient id="paint1_linear_1553_1374" x1="7.20001" y1="2" x2="7.20001" y2="12" gradientUnits="userSpaceOnUse">
<stop stop-color="white"/>
<stop offset="1" stop-color="white" stop-opacity="0.52"/>
</linearGradient>
</defs>
</svg>
