<svg width="14" height="14" viewBox="0 0 14 14" fill="none" xmlns="http://www.w3.org/2000/svg">
<path d="M9.45209 1.50268L1.52781 1.55294C1.29487 1.55442 1.10722 1.74447 1.10869 1.97741L1.12475 4.50813C1.12622 4.74107 1.31627 4.92872 1.54922 4.92725L9.47349 4.87698C9.70644 4.8755 9.89409 4.68546 9.89261 4.45251L9.87656 1.9218C9.87508 1.68885 9.68503 1.5012 9.45209 1.50268Z" fill="#FFCF54" stroke="#FFCF54" stroke-width="0.834017" stroke-linecap="square"/>
<path opacity="0.95" d="M12.5339 6.20338L6.84969 6.16028C6.6826 6.15902 6.54609 6.29343 6.54483 6.46053L6.53106 8.27587C6.52979 8.44297 6.66425 8.57944 6.83134 8.58071L12.5156 8.6238C12.6827 8.62507 12.8191 8.49065 12.8204 8.32356L12.8341 6.50821C12.8354 6.34112 12.701 6.20465 12.5339 6.20338Z" fill="#FFCF54" stroke="#FFCF54" stroke-width="0.598258" stroke-linecap="square"/>
<path opacity="0.95" d="M12.5915 10.0773L6.90725 10.0342C6.74015 10.0329 6.60365 10.1673 6.60238 10.3344L6.58862 12.1498C6.58735 12.3169 6.7218 12.4533 6.8889 12.4546L12.5731 12.4977C12.7402 12.499 12.8767 12.3646 12.8779 12.1975L12.8917 10.3821C12.893 10.215 12.7586 10.0785 12.5915 10.0773Z" fill="#FFCF54" stroke="#FFCF54" stroke-width="0.598258" stroke-linecap="square"/>
<path opacity="0.75" d="M3.64954 11.8927C3.45881 11.8478 3.28706 11.681 3.23552 11.4906C3.21514 11.4153 3.21492 11.2405 3.23151 8.29107C3.24116 6.57513 3.25159 5.1687 3.25471 5.16568C3.25782 5.16269 3.50878 5.15823 3.81237 5.15585L4.36436 5.1515L4.36436 5.99664L4.36436 6.84178H5.37028H6.37621L6.36834 6.90727C6.36399 6.94329 6.36042 7.19309 6.36036 7.46238L6.36025 7.952H5.35812H4.35598L4.3477 8.82208C4.34313 9.30063 4.33942 9.93776 4.33942 10.2379L4.33941 10.7837H5.38102H6.42262V11.2683C6.42262 11.5349 6.41901 11.7875 6.41461 11.8297L6.40659 11.9064L5.05178 11.9051C4.30371 11.9044 3.67572 11.8989 3.64954 11.8927Z" fill="#FFCF54" stroke="#FFCF54" stroke-width="0.0453543" stroke-linecap="round" stroke-linejoin="round"/>
</svg>
