<svg width="14" height="14" viewBox="0 0 14 14" fill="none" xmlns="http://www.w3.org/2000/svg">
<path d="M2.47582 4.00715C4.09786 1.95513 7.4578 1.35828 9.84893 2.77049C12.2103 4.16435 13.0787 6.84571 12.111 9.36095C11.1979 11.7363 8.79185 12.6769 7.05781 11.4821C6.40844 11.0346 6.15631 10.4734 6.03493 9.56217L5.97645 9.04498L5.95162 8.83642C5.88376 8.347 5.78004 8.12796 5.56266 8.01268C5.2675 7.85652 5.07054 7.85285 4.68268 7.99539L4.48903 8.07189L4.39027 8.11276C3.83083 8.34333 3.45898 8.42455 2.98837 8.33075L2.87802 8.30612L2.78754 8.28149C1.24881 7.82875 1.02095 5.84642 2.47582 4.00715ZM3.01871 7.5264L3.08657 7.54578L3.1605 7.56151C3.4027 7.60709 3.6096 7.56937 3.95332 7.4347L4.28545 7.30002C4.94861 7.04169 5.3806 7.01706 5.96597 7.32623C6.47189 7.59452 6.6694 8.00639 6.76982 8.72009L6.79906 8.96061L6.8294 9.23938L6.85533 9.46052C6.95023 10.1737 7.12291 10.5557 7.54387 10.846C8.79902 11.7106 10.5971 11.0079 11.3341 9.09109C12.1705 6.9154 11.4301 4.62967 9.41197 3.43755C7.38442 2.24071 4.50227 2.75319 3.13733 4.47876C1.99252 5.9266 2.13321 7.24553 3.01871 7.5264ZM9.2117 6.48152C9.18564 6.39769 9.1775 6.30975 9.18778 6.22289C9.19805 6.13602 9.22653 6.05199 9.27152 5.97574C9.31652 5.89949 9.37714 5.83257 9.44979 5.77891C9.52245 5.72526 9.60568 5.68596 9.69457 5.66333C9.78347 5.6407 9.87623 5.6352 9.9674 5.64715C10.0586 5.6591 10.1463 5.68826 10.2254 5.73292C10.3045 5.77757 10.3734 5.83681 10.4281 5.90715C10.4827 5.97749 10.522 6.05751 10.5435 6.14249C10.5857 6.30858 10.5579 6.48375 10.466 6.63062C10.3741 6.7775 10.2254 6.88446 10.0516 6.92869C9.87789 6.97292 9.69282 6.95092 9.5359 6.86738C9.37899 6.78384 9.26265 6.64538 9.2117 6.48152ZM9.48425 8.30927C9.4608 8.22617 9.45482 8.1395 9.46664 8.05421C9.47846 7.96892 9.50786 7.88668 9.55315 7.81218C9.59843 7.73768 9.65873 7.67238 9.73059 7.62001C9.80245 7.56764 9.88446 7.52923 9.97195 7.50697C10.0594 7.4847 10.1507 7.47903 10.2405 7.49026C10.3303 7.50149 10.4169 7.52942 10.4953 7.57244C10.5738 7.61545 10.6425 7.67273 10.6976 7.74098C10.7528 7.80923 10.7932 7.88713 10.8166 7.97023C10.864 8.13804 10.8392 8.31683 10.7477 8.46728C10.6562 8.61772 10.5056 8.72749 10.3289 8.77245C10.1522 8.81741 9.96399 8.79386 9.80558 8.707C9.64718 8.62014 9.53159 8.47707 9.48425 8.30927ZM8.12041 4.90792C8.09697 4.82483 8.09098 4.73816 8.10281 4.65287C8.11463 4.56758 8.14402 4.48533 8.18931 4.41083C8.2346 4.33633 8.29489 4.27103 8.36675 4.21866C8.43861 4.16629 8.52063 4.12788 8.60812 4.10562C8.6956 4.08336 8.78685 4.07768 8.87665 4.08892C8.96645 4.10015 9.05304 4.12807 9.13148 4.17109C9.20992 4.21411 9.27867 4.27138 9.3338 4.33963C9.38893 4.40789 9.42937 4.48579 9.4528 4.56889C9.50012 4.7367 9.47532 4.91549 9.38386 5.06593C9.29239 5.21637 9.14175 5.32615 8.96507 5.3711C8.7884 5.41606 8.60015 5.39252 8.44175 5.30566C8.28334 5.21879 8.16776 5.07572 8.12041 4.90792ZM8.10496 9.62296C8.0789 9.53913 8.07076 9.45119 8.08104 9.36432C8.09131 9.27746 8.11979 9.19343 8.16479 9.11718C8.20979 9.04093 8.2704 8.974 8.34305 8.92035C8.41571 8.86669 8.49894 8.82739 8.58783 8.80476C8.67673 8.78214 8.76949 8.77663 8.86066 8.78859C8.95183 8.80054 9.03956 8.8297 9.11867 8.87435C9.19779 8.91901 9.2667 8.97825 9.32133 9.04859C9.37597 9.11893 9.41523 9.19895 9.4368 9.28392C9.47896 9.45002 9.45113 9.62518 9.35923 9.77206C9.26734 9.91894 9.11866 10.0259 8.9449 10.0701C8.77115 10.1144 8.58608 10.0924 8.42917 10.0088C8.27225 9.92528 8.15591 9.78682 8.10496 9.62296ZM6.17562 4.39858C6.15134 4.31523 6.14467 4.22813 6.15602 4.14231C6.16736 4.05649 6.19649 3.97366 6.24171 3.89859C6.28694 3.82352 6.34737 3.75771 6.41952 3.70494C6.49167 3.65217 6.57411 3.61349 6.66208 3.59114C6.75005 3.56879 6.84181 3.56321 6.93206 3.57472C7.02231 3.58623 7.10927 3.6146 7.18792 3.6582C7.26656 3.7018 7.33534 3.75975 7.39028 3.82873C7.44522 3.89771 7.48523 3.97633 7.50801 4.06007C7.5535 4.22733 7.52759 4.40488 7.4359 4.55408C7.34422 4.70328 7.1942 4.81203 7.0185 4.85667C6.84279 4.90131 6.65564 4.87822 6.49777 4.79242C6.33991 4.70663 6.22412 4.56508 6.17562 4.39858Z" fill="#CFCFCF" stroke="#CFCFCF" stroke-width="0.3"/>
</svg>
