<svg width="14" height="14" viewBox="0 0 14 14" fill="none" xmlns="http://www.w3.org/2000/svg">
<path d="M3.89958 5.62581C3.40448 5.62581 3.40448 6.39431 3.89958 6.39431H10.1006C10.5957 6.39431 10.5957 5.62581 10.1006 5.62581H3.89958Z" fill="#CFCFCF" stroke="#CFCFCF" stroke-width="0.485636"/>
<g opacity="0.918239">
<path d="M3.95195 7.64388C3.45685 7.64388 3.45685 8.41237 3.95195 8.41237H10.153C10.6481 8.41237 10.6481 7.64388 10.153 7.64388H3.95195Z" fill="#CFCFCF" stroke="#CFCFCF" stroke-width="0.484285"/>
</g>
<path d="M11.5946 3.40065H2.40545C1.8658 3.40065 1.42834 3.83811 1.42834 4.37776V9.62223C1.42834 10.1619 1.8658 10.5993 2.40545 10.5993H11.5946C12.1343 10.5993 12.5717 10.1619 12.5717 9.62223V4.37776C12.5717 3.83811 12.1343 3.40065 11.5946 3.40065Z" stroke="#CFCFCF" stroke-width="1.3" stroke-linecap="round" stroke-linejoin="round"/>
</svg>
