<svg width="14" height="14" viewBox="0 0 14 14" fill="none" xmlns="http://www.w3.org/2000/svg">
<path d="M10.6562 11.4C10.6562 11.4729 10.6266 11.5429 10.5739 11.5945C10.5211 11.646 10.4496 11.675 10.375 11.675H3.625C3.55041 11.675 3.47887 11.646 3.42613 11.5945C3.37338 11.5429 3.34375 11.4729 3.34375 11.4V2.6C3.34375 2.52707 3.37338 2.45712 3.42613 2.40555C3.47887 2.35397 3.55041 2.325 3.625 2.325H7V4.8C7 5.09174 7.11853 5.37153 7.3295 5.57782C7.54048 5.78411 7.82663 5.9 8.125 5.9H10.6562V11.4ZM7.84375 2.94155L10.0251 5.075H8.125C8.05041 5.075 7.97887 5.04603 7.92613 4.99445C7.87338 4.94288 7.84375 4.87293 7.84375 4.8V2.94155ZM11.1704 5.0277L7.89156 1.8223C7.87694 1.808 7.85894 1.797 7.84375 1.7838C7.80505 1.74809 7.76389 1.71501 7.72056 1.6848C7.69806 1.66995 7.67219 1.66005 7.64856 1.6474C7.60862 1.6254 7.56925 1.6012 7.52706 1.5836C7.41505 1.53985 7.2965 1.51422 7.17606 1.5077C7.14962 1.50605 7.12375 1.5 7.09675 1.5H3.625C3.32663 1.5 3.04048 1.61589 2.8295 1.82218C2.61853 2.02847 2.5 2.30826 2.5 2.6V11.4C2.5 11.6917 2.61853 11.9715 2.8295 12.1778C3.04048 12.3841 3.32663 12.5 3.625 12.5H10.375C10.6734 12.5 10.9595 12.3841 11.1705 12.1778C11.3815 11.9715 11.5 11.6917 11.5 11.4V5.8054C11.4999 5.51369 11.3814 5.23394 11.1704 5.0277Z" fill="#CFCFCF" stroke="#CFCFCF" stroke-width="0.3"/>
</svg>
