<svg width="14" height="14" viewBox="0 0 14 14" fill="none" xmlns="http://www.w3.org/2000/svg">
<path d="M4.91385 2.5C5.16685 2.5 5.41325 2.57931 5.62005 2.72612L5.70585 2.79362L7.0121 3.90625H11.2625C11.561 3.90615 11.8496 4.01643 12.0749 4.21677C12.3002 4.41711 12.4471 4.69399 12.4885 4.99637L12.4973 5.08525L12.5 5.17188V10.2344C12.5 10.5551 12.381 10.8638 12.167 11.0982C11.9531 11.3326 11.66 11.4752 11.3472 11.4972L11.2625 11.5H2.7375C2.42393 11.5 2.12204 11.3783 1.89284 11.1595C1.66363 10.9406 1.52421 10.6409 1.50275 10.321L1.5 10.2344V3.76562C1.49996 3.44493 1.61896 3.13618 1.83295 2.90176C2.04694 2.66735 2.33997 2.52476 2.6528 2.50281L2.7375 2.5H4.91385ZM5.70585 5.86319C5.51184 6.0283 5.2731 6.12879 5.02165 6.15119L4.91385 6.15625L2.325 6.15569V10.2344C2.325 10.4481 2.4801 10.6248 2.6814 10.6523L2.7375 10.6562H11.2625C11.3622 10.6562 11.4585 10.6193 11.5336 10.5523C11.6087 10.4853 11.6576 10.3927 11.6712 10.2917L11.675 10.2344V5.17188C11.675 5.06993 11.6389 4.97143 11.5734 4.8946C11.5079 4.81777 11.4174 4.7678 11.3186 4.75394L11.2625 4.75H7.01155L5.70585 5.86319ZM4.91385 3.34375H2.7375C2.63782 3.34375 2.54151 3.38067 2.46639 3.44768C2.39126 3.51469 2.34241 3.60725 2.32885 3.70825L2.325 3.76562V5.31194L4.91385 5.3125C4.99064 5.31241 5.06588 5.29039 5.1311 5.24894L5.17785 5.21519L6.2179 4.32756L5.1784 3.44162C5.11922 3.39111 5.04739 3.35857 4.97105 3.34769L4.91385 3.34375Z" fill="#CFCFCF" stroke="#CFCFCF" stroke-width="0.3"/>
</svg>
