<svg width="15" height="14" viewBox="0 0 15 14" fill="none" xmlns="http://www.w3.org/2000/svg">
<path opacity="0.75" d="M3.62522 7.34779C3.65339 7.23679 3.6665 7.12552 3.6665 6.99999C3.6665 6.87449 3.65255 6.76325 3.62522 6.6522L3.61407 6.60449H4.48448H5.35489V6.63237C5.33815 6.82731 5.33815 7.17312 5.35489 7.36817V7.39604H4.48448H3.61407L3.62522 7.34779Z" fill="#2A80FF" stroke="#3178E1" stroke-width="0.0377953" stroke-linecap="round" stroke-linejoin="round"/>
<path d="M2.23099 8.43488C3.02343 8.43488 3.66583 7.79247 3.66583 7.00003C3.66583 6.20759 3.02343 5.56519 2.23099 5.56519C1.43855 5.56519 0.796143 6.20759 0.796143 7.00003C0.796143 7.79247 1.43855 8.43488 2.23099 8.43488Z" fill="#2A80FF"/>
<path d="M9.60964 10.6523C11.5946 10.6523 13.2038 9.01714 13.2038 7.00002C13.2038 4.9829 11.5946 3.34767 9.60964 3.34767C7.62463 3.34767 6.0155 4.9829 6.0155 7.00002C6.0155 9.01714 7.62463 10.6523 9.60964 10.6523Z" stroke="#3178E1" stroke-width="1.83685" stroke-linecap="round" stroke-linejoin="round"/>
</svg>
