<svg width="14" height="14" viewBox="0 0 14 14" fill="none" xmlns="http://www.w3.org/2000/svg">
<path opacity="0.54" d="M2.96269 5.25519C2.36457 5.25519 2.36457 6.14831 2.96269 6.14831H11.0373C11.6354 6.14831 11.6354 5.25519 11.0373 5.25519H2.96269Z" fill="#CFCFCF" stroke="#CFCFCF" stroke-width="0.8"/>
<g opacity="0.616352">
<path opacity="0.54" d="M2.5141 11.0605C2.5141 10.8139 2.71494 10.6139 2.96269 10.6139H9.69154C10.2897 10.6139 10.2897 11.5071 9.69154 11.5071H2.96269C2.71494 11.5071 2.5141 11.3071 2.5141 11.0605Z" fill="#CFCFCF" stroke="#CFCFCF" stroke-width="0.8"/>
</g>
<path opacity="0.54" d="M9 3.02238C9 2.77575 9.21924 2.57582 9.48969 2.57582H10.9588C11.6117 2.57582 11.6117 3.46895 10.9588 3.46895H9.48969C9.21924 3.46895 9 3.26901 9 3.02238Z" fill="#CFCFCF" stroke="#CFCFCF" stroke-width="0.8"/>
<path d="M7.00555 2.49294H2.78821V3.54512H7.00555V2.49294Z" fill="#CFCFCF" stroke="#CFCFCF" stroke-width="1.2" stroke-linecap="round" stroke-linejoin="round"/>
<g opacity="0.84696">
<path opacity="0.54" d="M2.53778 8.38113C2.53778 8.1345 2.73862 7.93457 2.98637 7.93457H7.92086C8.51898 7.93457 8.51898 8.8277 7.92086 8.8277H2.98637C2.73862 8.8277 2.53778 8.62776 2.53778 8.38113Z" fill="#CFCFCF" stroke="#CFCFCF" stroke-width="0.8"/>
</g>
</svg>
