<svg width="14" height="14" viewBox="0 0 14 14" fill="none" xmlns="http://www.w3.org/2000/svg">
<path opacity="0.77" d="M3.47254 4.53183C3.51439 4.41759 3.59827 4.32526 3.70575 4.27513C3.81323 4.225 3.93547 4.22117 4.04567 4.26449L6.99988 5.42606L9.95409 4.26449C10.009 4.24133 10.0678 4.22978 10.1271 4.23053C10.1863 4.23129 10.2448 4.24433 10.2992 4.26887C10.3535 4.29341 10.4025 4.32896 10.4434 4.37345C10.4843 4.41794 10.5162 4.47049 10.5372 4.52794C10.5582 4.5854 10.568 4.6466 10.5658 4.70801C10.5637 4.76942 10.5498 4.8298 10.5248 4.88554C10.4999 4.94128 10.4644 4.99126 10.4205 5.03259C10.3767 5.07391 10.3253 5.10573 10.2694 5.12616L7.44446 6.23793V9.61258C7.44377 9.73436 7.39658 9.85089 7.31329 9.93675C7.22999 10.0226 7.11733 10.0708 6.99988 10.0708C6.88243 10.0708 6.76977 10.0226 6.68647 9.93675C6.60318 9.85089 6.55608 9.73436 6.55538 9.61258V6.23855L3.73038 5.12554C3.62019 5.08218 3.53114 4.99522 3.48277 4.88378C3.4344 4.77233 3.43077 4.64611 3.47254 4.53183Z" fill="#C258FF" stroke="#C258FF" stroke-width="0.377953" stroke-linecap="round" stroke-linejoin="round"/>
<path d="M6.1648 1.16887C6.70041 0.943709 7.29958 0.943709 7.83518 1.16887L12.2794 3.0372C12.4709 3.1176 12.6348 3.25542 12.7502 3.43301C12.8656 3.61061 12.9273 3.81989 12.9273 4.03405V9.96595C12.9273 10.1801 12.8656 10.3894 12.7502 10.567C12.6348 10.7446 12.4709 10.8824 12.2794 10.9628L7.83518 12.8311C7.29958 13.0563 6.70041 13.0563 6.1648 12.8311L1.72048 10.9628C1.52904 10.8824 1.36513 10.7446 1.24971 10.567C1.13429 10.3894 1.07263 10.1801 1.07263 9.96595V4.03466C1.07263 3.82051 1.13429 3.61122 1.24971 3.43363C1.36513 3.25603 1.52904 3.11822 1.72048 3.03782L6.1648 1.16887ZM7.50083 2.02317C7.1796 1.88821 6.8203 1.88821 6.49907 2.02317L2.05418 3.89146C2.0268 3.90297 2.0034 3.92271 1.98691 3.94813C1.97043 3.97355 1.96166 4.0035 1.96171 4.03413V9.96603C1.96166 9.99666 1.97043 10.0266 1.98691 10.052C2.0034 10.0774 2.0268 10.0972 2.05418 10.1087L6.49907 11.977C6.8203 12.112 7.1796 12.112 7.50083 11.977L11.9457 10.1087C11.9731 10.0972 11.9965 10.0774 12.013 10.052C12.0295 10.0266 12.0382 9.99666 12.0382 9.96603V4.0347C12.0382 4.00408 12.0295 3.97412 12.013 3.9487C11.9965 3.92328 11.9731 3.90358 11.9457 3.89208L7.50083 2.02317Z" fill="#C258FF" stroke="#C258FF" stroke-width="0.377953" stroke-linecap="round" stroke-linejoin="round"/>
</svg>
