<svg width="14" height="14" viewBox="0 0 14 14" fill="none" xmlns="http://www.w3.org/2000/svg">
<path opacity="0.75" d="M8.33356 1.8642V2.9053H8.7273C8.92424 2.9053 9.10147 2.92653 9.2575 2.96594C9.41768 3.00657 9.55495 3.07477 9.67008 3.17087C9.78507 3.26697 9.87339 3.39611 9.93477 3.55861C9.99648 3.71746 10.0269 3.91687 10.0269 4.15682V5.08153C10.0269 5.62789 10.1318 6.03408 10.3412 6.29989C10.5546 6.56213 10.8815 6.71675 11.3209 6.76474C11.099 6.79506 10.9061 6.8442 10.7418 6.91453C10.5776 6.98456 10.4417 7.08608 10.3349 7.21896C10.2324 7.3481 10.1548 7.51274 10.1015 7.71198C10.0522 7.90752 10.027 8.14365 10.027 8.42052V9.86009C10.027 10.0926 9.99668 10.2869 9.93497 10.442C9.87326 10.6008 9.78517 10.7282 9.67018 10.8241C9.55519 10.9239 9.41792 10.9933 9.2576 11.0339C9.10147 11.0745 8.92444 11.0951 8.7274 11.0951H8.33366V12.1362H8.85079C9.29839 12.1362 9.68229 12.0862 10.0026 11.9865C10.3229 11.8904 10.5861 11.7461 10.7914 11.5543C10.9968 11.3624 11.1464 11.1224 11.2408 10.8345C11.3393 10.5501 11.3886 10.218 11.3886 9.8378V8.38134C11.3886 8.18944 11.4088 8.02549 11.4499 7.88892C11.4951 7.74856 11.5653 7.63365 11.6597 7.54503C11.7581 7.45651 11.8857 7.39197 12.0416 7.35135C12.1977 7.30709 12.3864 7.28492 12.6081 7.28492H13.0025V6.23818H12.6081C12.1687 6.23818 11.8549 6.1445 11.666 5.95624C11.4812 5.76434 11.3887 5.4777 11.3887 5.09745V4.16719C11.3887 3.36611 11.179 2.78299 10.7602 2.4175C10.3414 2.04834 9.70501 1.86374 8.8509 1.86374L8.33356 1.8642Z" fill="#CFCFCF" stroke="#CFCFCF" stroke-width="0.188977" stroke-linecap="round" stroke-linejoin="round"/>
<path d="M5.14284 1.8642C4.69524 1.8642 4.31127 1.9142 3.99094 2.01394C3.67463 2.10974 3.41384 2.25374 3.2085 2.44558C3.00313 2.63748 2.85134 2.87739 2.75281 3.16536C2.65839 3.45336 2.6111 3.78742 2.6111 4.16765V5.14241C2.6111 5.33431 2.58748 5.50076 2.54297 5.64103C2.50183 5.77776 2.43242 5.89021 2.33396 5.97867C2.23549 6.06719 2.10798 6.1336 1.95205 6.17786C1.79592 6.21848 1.60662 6.23851 1.3849 6.23851H0.997437V7.28524H1.3849C1.8243 7.28524 2.13877 7.38135 2.32768 7.57325C2.51652 7.76515 2.6113 8.05123 2.6113 8.43149V9.83784C2.6113 10.6353 2.82037 11.217 3.23917 11.5825C3.65803 11.9516 4.2928 12.1362 5.14284 12.1362H5.65997V11.0951H5.27179C5.07451 11.0951 4.89607 11.0739 4.73592 11.0339C4.57979 10.9933 4.44465 10.925 4.32973 10.8289C4.21474 10.7328 4.12631 10.6055 4.06494 10.4468C4.00323 10.2879 3.97221 10.0891 3.97221 9.84917V8.44277C3.97221 7.89642 3.86531 7.49208 3.65185 7.22997C3.43839 6.96409 3.11221 6.80888 2.67285 6.76456C2.89474 6.73424 3.08757 6.68515 3.25183 6.61482C3.41606 6.54115 3.55133 6.4396 3.65813 6.31039C3.76502 6.17761 3.84291 6.01358 3.89215 5.81792C3.94577 5.62238 3.97242 5.3857 3.97242 5.10882V4.13975C3.97242 3.90723 4.00276 3.71344 4.06514 3.55838C4.12685 3.39952 4.21484 3.2722 4.32983 3.17628C4.44483 3.08048 4.58006 3.01198 4.73613 2.97135C4.89631 2.92709 5.07489 2.90493 5.27199 2.90493H5.66018V1.86383L5.14284 1.8642Z" fill="#CFCFCF" stroke="#CFCFCF" stroke-width="0.188977" stroke-linecap="round" stroke-linejoin="round"/>
</svg>
