<svg width="14" height="14" viewBox="0 0 14 14" fill="none" xmlns="http://www.w3.org/2000/svg">
<path d="M3.05796 3.43411C3.53426 3.43411 3.92037 3.04727 3.92037 2.57007C3.92037 2.09288 3.53426 1.70604 3.05796 1.70604C2.58166 1.70604 2.19556 2.09288 2.19556 2.57007C2.19556 3.04727 2.58166 3.43411 3.05796 3.43411Z" stroke="#CFCFCF" stroke-linecap="round" stroke-linejoin="round"/>
<path d="M5.51511 6.06073C5.99142 6.06073 6.37752 5.67388 6.37752 5.19669C6.37752 4.7195 5.99142 4.33266 5.51511 4.33266C5.03881 4.33266 4.65271 4.7195 4.65271 5.19669C4.65271 5.67388 5.03881 6.06073 5.51511 6.06073Z" stroke="#CFCFCF" stroke-linecap="round" stroke-linejoin="round"/>
<path d="M2.45087 5.8383C2.68693 5.56238 6.15483 1.93082 6.15483 1.93082" stroke="#CFCFCF" stroke-linecap="round" stroke-linejoin="round"/>
<g opacity="0.918239">
<path d="M12.2644 4.29653C12.9113 4.29653 12.8348 3.47021 12.2644 3.47021H8.80102C8.26266 3.47021 8.2107 4.29653 8.80102 4.29653H12.2644Z" fill="#CFCFCF" stroke="#CFCFCF" stroke-width="0.626822"/>
</g>
<g opacity="0.807128">
<path d="M4.30191 8.41537C4.30191 7.76851 3.47559 7.84501 3.47559 8.41537V11.8788C3.47559 12.4171 4.30191 12.4691 4.30191 11.8788V8.41537Z" fill="#CFCFCF" stroke="#CFCFCF" stroke-width="0.626822"/>
<path d="M5.60377 10.5435C6.25062 10.5435 6.17412 9.71719 5.60377 9.71719H2.14037C1.60202 9.71719 1.55005 10.5435 2.14037 10.5435H5.60377Z" fill="#CFCFCF" stroke="#CFCFCF" stroke-width="0.626822"/>
</g>
<g opacity="0.807128">
<path d="M11.6021 9.15782C12.0432 8.68474 11.3867 8.17714 10.9977 8.59427L8.63569 11.1272C8.26854 11.521 8.83742 12.1225 9.24002 11.6908L11.6021 9.15782Z" fill="#CFCFCF" stroke="#CFCFCF" stroke-width="0.626822"/>
<path d="M11.1028 11.6021C11.5759 12.0433 12.0835 11.3868 11.6663 10.9978L9.13337 8.63577C8.73964 8.26861 8.13808 8.8375 8.56982 9.2401L11.1028 11.6021Z" fill="#CFCFCF" stroke="#CFCFCF" stroke-width="0.626822"/>
</g>
</svg>
