<svg width="14" height="14" viewBox="0 0 14 14" fill="none" xmlns="http://www.w3.org/2000/svg">
<path d="M9.61458 1.5C9.16093 1.49987 8.71364 1.60564 8.30906 1.80872C7.90447 2.0118 7.554 2.30647 7.28611 2.66879C7.01822 3.0311 6.84047 3.45084 6.7673 3.89392C6.69412 4.33699 6.72759 4.7909 6.86498 5.21876L1.88329 10.3185C1.76108 10.4378 1.66422 10.5801 1.5984 10.737C1.53258 10.894 1.49913 11.0623 1.50002 11.2322C1.50091 11.4021 1.53611 11.5701 1.60357 11.7264C1.67103 11.8826 1.76937 12.0239 1.89282 12.142C2.01627 12.26 2.16233 12.3525 2.32241 12.4139C2.48249 12.4753 2.65336 12.5044 2.82497 12.4995C2.99658 12.4946 3.16546 12.4557 3.32168 12.3853C3.47791 12.3148 3.61832 12.2142 3.73467 12.0892L8.65868 7.04824C9.15824 7.22216 9.69655 7.25661 10.2146 7.1478C10.7326 7.039 11.2104 6.79114 11.5955 6.43141C11.9806 6.07167 12.2582 5.61394 12.3979 5.10841C12.5376 4.60287 12.5339 4.06904 12.3873 3.56544C12.3674 3.49737 12.3299 3.43561 12.2786 3.38623C12.2273 3.33685 12.1638 3.30156 12.0945 3.28383C12.0252 3.26611 11.9524 3.26656 11.8833 3.28515C11.8142 3.30373 11.7512 3.33981 11.7005 3.38983L9.9497 5.12036L8.818 4.00038L10.554 2.28127C10.6051 2.23076 10.6418 2.16788 10.6606 2.0989C10.6793 2.02993 10.6795 1.95728 10.6609 1.88824C10.6424 1.81921 10.6059 1.75619 10.555 1.70552C10.5041 1.65484 10.4407 1.61828 10.3711 1.59949C10.1243 1.5333 9.87027 1.49984 9.61458 1.5Z" fill="#CFCFCF"/>
</svg>
