<svg width="14" height="14" viewBox="0 0 14 14" fill="none" xmlns="http://www.w3.org/2000/svg">
<g opacity="0.914046">
<path d="M3.72387 4.93547H5.21589C5.26751 4.93547 5.31701 4.955 5.35351 4.98977C5.39 5.02454 5.41051 5.07169 5.41051 5.12086C5.41051 5.17002 5.39 5.21718 5.35351 5.25194C5.31701 5.28671 5.26751 5.30624 5.21589 5.30624H3.72387C3.27654 5.30624 2.84754 5.13697 2.53124 4.83566C2.21493 4.53435 2.03723 4.12569 2.03723 3.69958C2.03723 3.27346 2.21493 2.8648 2.53124 2.56349C2.84754 2.26218 3.27654 2.09291 3.72387 2.09291H5.26779L4.58898 1.44604C4.55461 1.4109 4.53589 1.36442 4.53678 1.31639C4.53767 1.26836 4.5581 1.22254 4.59375 1.18858C4.62941 1.15461 4.67751 1.13515 4.72793 1.13431C4.77835 1.13346 4.82714 1.15129 4.86404 1.18403L5.87135 2.14358C5.8973 2.1683 5.91442 2.19796 5.92273 2.2296C5.93194 2.26179 5.93185 2.29575 5.92249 2.3279C5.91313 2.36005 5.89483 2.3892 5.86953 2.41227L4.86274 3.37132C4.84478 3.38902 4.8233 3.40313 4.79955 3.41284C4.7758 3.42254 4.75026 3.42765 4.72442 3.42785C4.69858 3.42805 4.67296 3.42335 4.64904 3.41402C4.62513 3.40468 4.60341 3.39091 4.58514 3.37349C4.56688 3.35608 4.55244 3.33538 4.54267 3.31259C4.53289 3.2898 4.52798 3.26539 4.52822 3.24077C4.52845 3.21616 4.53383 3.19183 4.54404 3.16922C4.55426 3.14661 4.56909 3.12616 4.58769 3.10906L5.26494 2.46368H3.72387C3.37977 2.46368 3.04977 2.59389 2.80646 2.82567C2.56315 3.05744 2.42646 3.3718 2.42646 3.69958C2.42646 4.02736 2.56315 4.34171 2.80646 4.57349C3.04977 4.80526 3.37977 4.93547 3.72387 4.93547Z" fill="#CFCFCF" stroke="#CFCFCF" stroke-width="0.6"/>
</g>
<path d="M3.94576 12.838C3.64119 12.7728 3.3396 12.5374 3.20099 12.2561C3.06923 11.9887 3.07763 12.2372 3.07721 8.63825C3.077 6.52225 3.08351 5.41076 3.09402 5.41076C3.10452 5.41076 3.168 5.42547 3.23735 5.44501C3.3792 5.48368 3.62209 5.51458 3.78472 5.51479L3.8931 5.51492L3.89945 8.69029L3.90574 11.8657L3.94627 11.9226C3.96855 11.9539 4.01709 11.9949 4.05408 12.0138C4.12048 12.0477 4.16883 12.0481 7.52081 12.0481C11.3063 12.0481 10.9888 12.0586 11.0871 11.9298L11.1337 11.8684L11.14 9.03048L11.1463 6.19257L9.83868 6.19228C8.37112 6.19194 8.39436 6.1934 8.14065 6.0685C7.93596 5.96763 7.75674 5.78838 7.65587 5.58376C7.53083 5.33011 7.53252 5.353 7.5321 3.88855L7.53184 2.58372L7.13634 2.57323C6.68262 2.56273 6.63358 2.55032 6.52682 2.42907C6.34483 2.22228 6.4066 1.91575 6.65457 1.7957C6.73107 1.7585 6.74536 1.75786 7.27569 1.76543C7.73331 1.77173 7.83343 1.77806 7.914 1.8039C8.06363 1.85203 8.20812 1.93103 8.33099 2.03161C8.39319 2.08246 9.18692 2.86931 10.0949 3.78014C11.3145 5.00343 11.7609 5.46189 11.8034 5.5346C11.8351 5.58882 11.8818 5.69034 11.9072 5.76051L11.9538 5.88807L11.9601 8.87205C11.9664 12.2072 11.9727 11.9859 11.8401 12.2556C11.6983 12.5433 11.4022 12.7723 11.0867 12.8383C10.9095 12.8753 4.12784 12.8746 3.95397 12.8377L3.94576 12.838ZM10.5137 5.36302C10.5137 5.34621 8.37176 3.20404 8.35446 3.20404C8.34816 3.20404 8.34396 3.65232 8.34606 4.20017L8.35235 5.19631L8.39903 5.25723C8.49213 5.37933 8.45133 5.37514 9.53828 5.37556C10.0758 5.37577 10.5137 5.36932 10.5137 5.36302Z" fill="#CFCFCF" stroke="#CFCFCF" stroke-width="0.3" stroke-linecap="round" stroke-linejoin="round"/>
</svg>
