<svg width="14" height="14" viewBox="0 0 14 14" fill="none" xmlns="http://www.w3.org/2000/svg">
<path d="M1.47455 7.08881L1.48158 3.17518L1.52577 3.03154C1.73015 2.37251 2.20363 1.91206 2.86252 1.73163L3.02896 1.68602H6.98664H10.9445L11.1184 1.73024C11.7729 1.89691 12.2617 2.36857 12.4672 3.03143L12.5114 3.17508L12.5184 7.08874L12.5254 9.77059H11.9226H11.3199V7.20631C11.3199 3.58551 11.3199 3.40548 11.2843 3.30792C11.2394 3.17896 11.1006 3.02278 10.9694 2.95358L10.8693 2.90072H6.99971H3.13012L3.02839 2.95425C2.83379 3.05691 2.7265 3.20482 2.68953 3.42187C2.67557 3.51009 2.67094 4.65182 2.67327 7.27476L2.68023 9.77048H2.07746H1.47469L1.47455 7.08881Z" fill="#CFCFCF"/>
<path opacity="0.878407" d="M6.12659 12.2841L4.84845 12.2842" stroke="#CFCFCF" stroke-width="1.23" stroke-linecap="round" stroke-linejoin="round"/>
<path opacity="0.878" d="M9.16468 12.2841L7.88654 12.2842" stroke="#CFCFCF" stroke-width="1.23" stroke-linecap="round" stroke-linejoin="round"/>
<path opacity="0.878" d="M10.7886 12.2844C12.0287 12.4655 11.957 11.7871 11.9226 11.0024" stroke="#CFCFCF" stroke-width="1.23" stroke-linecap="round" stroke-linejoin="round"/>
<path opacity="0.878" d="M3.21132 12.2843C1.97122 12.4654 2.04293 11.787 2.07731 11.0023" stroke="#CFCFCF" stroke-width="1.23" stroke-linecap="round" stroke-linejoin="round"/>
<path d="M1.47781 8.2948C1.47769 6.87895 1.47778 5.47692 1.48477 5.17919L1.49173 4.63791H2.082H2.67226L2.67198 7.74386C2.6716 10.7878 2.67199 10.8488 2.65336 10.7999C2.62078 10.71 2.58163 10.6488 2.5083 10.5746C2.27093 10.3338 1.88783 10.3328 1.64844 10.5723C1.57884 10.6419 1.53444 10.7122 1.50231 10.8032L1.4788 10.8691L1.47781 8.2948Z" fill="#CFCFCF"/>
<path d="M11.3232 7.75828V4.63791H11.9134H12.5037L12.5107 5.32355C12.5177 5.70068 12.5176 7.09834 12.5176 8.42953C12.5171 10.4003 12.5177 10.8426 12.5037 10.8108C12.4502 10.639 12.2982 10.4878 12.1157 10.4245C12.051 10.4013 12.0252 10.3985 11.9253 10.398C11.8294 10.3976 11.7984 10.4003 11.7423 10.419C11.5447 10.4844 11.392 10.641 11.3376 10.8345C11.3283 10.8697 11.3255 10.2941 11.3232 7.75828Z" fill="#CFCFCF"/>
</svg>
