<svg width="14" height="14" viewBox="0 0 14 14" fill="none" xmlns="http://www.w3.org/2000/svg">
<path d="M11.2533 2.11821H2.69333C2.38844 2.11821 2.1413 2.36536 2.1413 2.67025V4.66912C2.1413 4.97401 2.38844 5.2212 2.69333 5.2212H11.2533C11.5582 5.2212 11.8053 4.97401 11.8053 4.66912V2.67025C11.8053 2.36536 11.5582 2.11821 11.2533 2.11821Z" stroke="#CFCFCF" stroke-width="1.5" stroke-linecap="round" stroke-linejoin="round"/>
<path opacity="0.920335" d="M5.4024 8.20927H2.57722C2.35252 8.20927 2.17035 8.39141 2.17035 8.61611V11.4749C2.17035 11.6996 2.35252 11.8818 2.57722 11.8818H5.4024C5.6271 11.8818 5.80927 11.6996 5.80927 11.4749V8.61611C5.80927 8.39141 5.6271 8.20927 5.4024 8.20927Z" stroke="#CFCFCF" stroke-width="1.5" stroke-linecap="round" stroke-linejoin="round"/>
<path opacity="0.861635" d="M11.4971 8.20927H8.58144C8.38171 8.20927 8.21979 8.3712 8.21979 8.57093V11.5201C8.21979 11.7199 8.38171 11.8818 8.58144 11.8818H11.4971C11.6968 11.8818 11.8587 11.7199 11.8587 11.5201V8.57093C11.8587 8.3712 11.6968 8.20927 11.4971 8.20927Z" stroke="#CFCFCF" stroke-width="1.5" stroke-linecap="round" stroke-linejoin="round"/>
</svg>
