<svg width="14" height="14" viewBox="0 0 14 14" fill="none" xmlns="http://www.w3.org/2000/svg">
<path d="M2.82416 2.96812C2.82416 2.81536 2.88484 2.66886 2.99286 2.56084C3.10088 2.45282 3.24738 2.39214 3.40014 2.39214H10.5999C10.7527 2.39214 10.8992 2.45282 11.0072 2.56084C11.1152 2.66886 11.1759 2.81536 11.1759 2.96812V4.12008C11.1759 4.27285 11.1152 4.41935 11.0072 4.52737C10.8992 4.63538 10.7527 4.69607 10.5999 4.69607C10.4472 4.69607 10.3007 4.63538 10.1926 4.52737C10.0846 4.41935 10.0239 4.27285 10.0239 4.12008V3.5441H7.57602V10.4559H8.152C8.30476 10.4559 8.45126 10.5166 8.55928 10.6246C8.6673 10.7326 8.72798 10.8791 8.72798 11.0319C8.72798 11.1846 8.6673 11.3311 8.55928 11.4392C8.45126 11.5472 8.30476 11.6079 8.152 11.6079H5.84807C5.69531 11.6079 5.5488 11.5472 5.44079 11.4392C5.33277 11.3311 5.27209 11.1846 5.27209 11.0319C5.27209 10.8791 5.33277 10.7326 5.44079 10.6246C5.5488 10.5166 5.69531 10.4559 5.84807 10.4559H6.42405V3.5441H3.97612V4.12008C3.97612 4.27285 3.91544 4.41935 3.80742 4.52737C3.6994 4.63538 3.5529 4.69607 3.40014 4.69607C3.24738 4.69607 3.10088 4.63538 2.99286 4.52737C2.88484 4.41935 2.82416 4.27285 2.82416 4.12008V2.96812Z" fill="#CFCFCF"/>
<path opacity="0.77" d="M2.26001 6.13129L0.987244 7.91314L2.26898 9.7132" stroke="#CFCFCF" stroke-width="1.2567" stroke-linecap="round" stroke-linejoin="round"/>
<path opacity="0.77" d="M11.74 6.31128L13.0127 8.09313L11.731 9.89319" stroke="#CFCFCF" stroke-width="1.2567" stroke-linecap="round" stroke-linejoin="round"/>
</svg>
