<svg width="14" height="14" viewBox="0 0 14 14" fill="none" xmlns="http://www.w3.org/2000/svg">
<path opacity="0.84" d="M2.92635 3.19176C2.46807 3.19176 2.46807 3.87606 2.92635 3.87606H7.88413C8.3424 3.87606 8.3424 3.19176 7.88413 3.19176H2.92635Z" fill="#CFCFCF" stroke="#CFCFCF" stroke-width="0.508817"/>
<g opacity="0.84696">
<path opacity="0.81" d="M2.60083 5.58681C2.60083 5.39785 2.75471 5.24466 2.94454 5.24466H5.12508C5.58336 5.24466 5.58336 5.92897 5.12508 5.92897H2.94454C2.75471 5.92897 2.60083 5.77578 2.60083 5.58681Z" fill="#CFCFCF" stroke="#CFCFCF" stroke-width="0.508817"/>
</g>
<path opacity="0.84" d="M2.92635 7.39636C2.46807 7.39636 2.46807 8.08067 2.92635 8.08067H7.88413C8.3424 8.08067 8.3424 7.39636 7.88413 7.39636H2.92635Z" fill="#CFCFCF" stroke="#CFCFCF" stroke-width="0.507021"/>
<g opacity="0.84696">
<path opacity="0.81" d="M2.60083 9.79142C2.60083 9.60245 2.75471 9.44926 2.94454 9.44926H5.12508C5.58336 9.44926 5.58336 10.1336 5.12508 10.1336H2.94454C2.75471 10.1336 2.60083 9.98038 2.60083 9.79142Z" fill="#CFCFCF" stroke="#CFCFCF" stroke-width="0.508817"/>
</g>
<path d="M10.5548 1.18901H3.69961C3.22323 1.18901 2.8371 1.57519 2.8371 2.05157V11.9484C2.8371 12.4248 3.22323 12.811 3.69961 12.811H10.5548C11.0312 12.811 11.4174 12.4248 11.4174 11.9484V2.05157C11.4174 1.57519 11.0312 1.18901 10.5548 1.18901Z" stroke="#CFCFCF" stroke-width="1.34607" stroke-linecap="round" stroke-linejoin="round"/>
</svg>
