<svg width="14" height="14" viewBox="0 0 14 14" fill="none" xmlns="http://www.w3.org/2000/svg">
<path d="M2.82641 7.58289C2.55501 7.58289 2.55501 7.9895 2.82641 7.9895H6.22562C6.49702 7.9895 6.49702 7.58289 6.22562 7.58289H2.82641Z" fill="#FFCF54" stroke="#FFCF54" stroke-width="0.2"/>
<g opacity="0.951782">
<path opacity="0.832285" d="M2.85522 8.65065C2.58382 8.65065 2.58382 9.05726 2.85522 9.05726H6.25443C6.52582 9.05726 6.52582 8.65065 6.25443 8.65065H2.85522Z" fill="#FFCF54" stroke="#FFCF54" stroke-width="0.2"/>
</g>
<path opacity="0.807128" d="M12.2517 3.50305H7.21447C6.91865 3.50305 6.67883 3.7345 6.67883 4.02003V6.79487C6.67883 7.0804 6.91865 7.31188 7.21447 7.31188H12.2517C12.5475 7.31188 12.7873 7.0804 12.7873 6.79487V4.02003C12.7873 3.7345 12.5475 3.50305 12.2517 3.50305Z" stroke="#FFCF54" stroke-width="0.6" stroke-linecap="round" stroke-linejoin="round"/>
<path d="M1.86263 10.4787C1.61073 10.4232 1.40864 10.2655 1.30195 10.0418C1.27203 9.97919 1.24005 9.89672 1.23091 9.85901C1.21721 9.80323 1.21265 9.50375 1.21265 8.28218V6.77412L1.24186 6.68041C1.28663 6.53554 1.34813 6.43573 1.46098 6.32349C1.5366 6.24852 1.58615 6.21149 1.65765 6.17643C1.85572 6.08007 1.67825 6.10519 3.90375 6.08292L6.17697 6.06021C6.13676 6.26484 6.1724 6.46952 6.17697 6.67419L3.92739 6.69404H1.95911L1.91798 6.72203C1.86087 6.76106 1.82978 6.80694 1.81745 6.87089C1.80374 6.9399 1.80374 9.63274 1.81724 9.71386C1.83095 9.79038 1.86157 9.83426 1.93102 9.86955L1.9861 9.89777L4.55603 9.89771C6.20417 9.89766 7.14182 9.8933 7.17017 9.88448C7.22043 9.87125 7.28624 9.80774 7.30612 9.75548C7.31526 9.73211 7.313 9.46307 7.31985 8.95137L7.33352 7.85716C7.56437 7.89442 7.72477 7.85054 7.93225 7.85716L7.91859 8.98148C7.90945 9.73565 7.91858 9.78582 7.89391 9.87691C7.83588 10.1048 7.67135 10.3098 7.4671 10.409C7.27154 10.5038 7.48768 10.4974 4.56321 10.4965C2.43597 10.4958 1.92323 10.492 1.86263 10.4787Z" fill="#FFCF54"/>
<g opacity="0.87631">
<path d="M8.02429 4.66896C7.75289 4.66896 7.75289 5.07557 8.02429 5.07557H11.4235C11.6949 5.07557 11.6949 4.66896 11.4235 4.66896H8.02429Z" fill="#FFCF54" stroke="#FFCF54" stroke-width="0.2"/>
</g>
<g opacity="0.807128">
<path opacity="0.832285" d="M8.05304 5.73674C7.78164 5.73674 7.78164 6.14335 8.05304 6.14335H11.4522C11.7236 6.14335 11.7236 5.73674 11.4522 5.73674H8.05304Z" fill="#FFCF54" stroke="#FFCF54" stroke-width="0.2"/>
</g>
</svg>
