<svg width="14" height="14" viewBox="0 0 14 14" fill="none" xmlns="http://www.w3.org/2000/svg">
<path opacity="0.8" d="M3.21716 6.52585L5.50938 7.42794L5.50326 9.85222L5.50938 7.41669L10.5883 6.30681" stroke="#2B80FF" stroke-width="0.618398" stroke-linecap="square"/>
<path d="M3.00006 8.9808L3 6.28846L8.39534 5L11 6.17308V9.00004L5.45253 10L3.00006 8.9808Z" stroke="#2B80FF" stroke-width="0.580917" stroke-linecap="round" stroke-linejoin="round"/>
<path opacity="0.849057" d="M0.551562 1.3606C0.441106 1.3606 0.351562 1.45014 0.351562 1.5606V12.4692C0.351562 12.5796 0.441106 12.6692 0.551563 12.6692H3.35853C3.46899 12.6692 3.55853 12.5796 3.55853 12.4692V11.711C3.55853 11.6005 3.46899 11.511 3.35853 11.511H1.92263C1.81218 11.511 1.72263 11.4214 1.72263 11.311V2.7188C1.72263 2.60835 1.81218 2.5188 1.92263 2.5188H3.35853C3.46899 2.5188 3.55853 2.42926 3.55853 2.3188V1.5606C3.55853 1.45014 3.46899 1.3606 3.35853 1.3606H0.551562Z" fill="#2F83FF"/>
<path opacity="0.849057" d="M13.4484 1.33081C13.5588 1.33081 13.6484 1.42035 13.6484 1.53081V12.4394C13.6484 12.5499 13.5588 12.6394 13.4484 12.6394H10.6414C10.5309 12.6394 10.4414 12.5499 10.4414 12.4394V11.6812C10.4414 11.5707 10.5309 11.4812 10.6414 11.4812H12.0773C12.1878 11.4812 12.2773 11.3917 12.2773 11.2812V2.68902C12.2773 2.57856 12.1878 2.48902 12.0773 2.48902H10.6414C10.5309 2.48902 10.4414 2.39947 10.4414 2.28902V1.53081C10.4414 1.42035 10.5309 1.33081 10.6414 1.33081H13.4484Z" fill="#2F83FF"/>
</svg>
