<svg width="14" height="14" viewBox="0 0 14 14" fill="none" xmlns="http://www.w3.org/2000/svg">
<path opacity="0.9" d="M4.94625 4.26932C4.89102 4.26932 4.84625 4.31409 4.84625 4.36932V9.54503C4.84625 9.60026 4.89102 9.64503 4.94625 9.64503H5.76662C5.82185 9.64503 5.86662 9.60026 5.86662 9.54503V9.27465C5.83062 9.2368 5.89833 9.31726 5.86662 9.27465C5.9912 9.40598 6.14136 9.51106 6.31859 9.58822C6.55183 9.68293 6.80441 9.73018 7.07652 9.73018C7.46522 9.73018 7.81261 9.64038 8.11873 9.46037C8.42484 9.28056 8.66535 9.0366 8.84027 8.72888C9.02007 8.42114 9.11001 8.08023 9.11001 7.70623C9.11001 7.32749 9.01997 6.98661 8.84027 6.68362C8.66046 6.3759 8.41768 6.13218 8.11156 5.95229C7.80545 5.77227 7.46289 5.68232 7.08388 5.68232C6.79236 5.68232 6.53227 5.73693 6.30392 5.84575C6.23938 5.87586 6.17912 5.91013 6.12273 5.94818C6.04947 5.99763 5.93954 5.94916 5.93954 5.86077V4.36932C5.93954 4.31409 5.89476 4.26932 5.83954 4.26932H4.94625ZM6.94536 6.6411C7.14951 6.6411 7.32912 6.68857 7.4846 6.78328C7.64007 6.87329 7.76171 6.99862 7.84918 7.15959C7.93652 7.31588 7.98027 7.49805 7.98027 7.70636C7.98027 7.91466 7.93652 8.0993 7.84918 8.26027C7.76162 8.42126 7.64009 8.54667 7.4846 8.63661C7.32914 8.72662 7.14943 8.77161 6.94536 8.77161C6.75103 8.77161 6.57608 8.72662 6.4206 8.63661C6.27004 8.54661 6.15084 8.42124 6.06339 8.26027C5.98075 8.09928 5.9396 7.91466 5.9396 7.70636C5.9396 7.49805 5.98095 7.31341 6.06339 7.15244C6.15094 6.99145 6.26998 6.86608 6.4206 6.77613C6.57606 6.68613 6.75101 6.6411 6.94536 6.6411Z" fill="#CFCFCF"/>
<path opacity="0.8" d="M11.7046 5.68242C11.3062 5.68242 10.9465 5.76996 10.6258 5.94521C10.3051 6.12031 10.0525 6.36183 9.86787 6.66955C9.68315 6.97254 9.59094 7.31585 9.59094 7.69934C9.59094 8.08281 9.68321 8.42838 9.86787 8.7361C10.0573 9.04384 10.31 9.28755 10.6258 9.46746C10.9465 9.64256 11.3062 9.73025 11.7046 9.73025C12.0058 9.73025 12.2828 9.68056 12.5354 9.58114C12.7881 9.47702 13.0043 9.33496 13.1841 9.15505C13.3409 8.99817 13.4571 8.82316 13.5326 8.63015C13.5514 8.58208 13.5268 8.52886 13.4794 8.50858L12.7138 8.18155C12.6606 8.15883 12.5998 8.18613 12.5752 8.2385C12.5058 8.38669 12.4052 8.50753 12.2731 8.60113C12.1127 8.71466 11.9232 8.77153 11.7046 8.77153C11.5152 8.77153 11.345 8.72653 11.1943 8.63653C11.0485 8.54652 10.9319 8.42115 10.8445 8.26019C10.7618 8.0992 10.7207 7.91458 10.7207 7.70627C10.7207 7.49797 10.762 7.31333 10.8445 7.15236C10.932 6.99137 11.0486 6.86599 11.1943 6.77605C11.3449 6.68604 11.5151 6.64102 11.7046 6.64102C11.9184 6.64102 12.1054 6.69788 12.2657 6.81141C12.402 6.90506 12.5052 7.02629 12.5753 7.17483C12.5999 7.22692 12.6604 7.2543 12.7135 7.232L13.4785 6.91085C13.5264 6.89076 13.5512 6.83726 13.5325 6.78884C13.4533 6.58381 13.3347 6.4044 13.1767 6.25051C12.9969 6.0707 12.7808 5.93082 12.5281 5.8314C12.2755 5.73199 12.001 5.68242 11.7046 5.68242Z" fill="#CFCFCF"/>
<path d="M2.3391 5.68242C2.05728 5.68242 1.79735 5.72497 1.55926 5.81027C1.32118 5.89557 1.11709 6.01622 0.947043 6.17244C0.799592 6.308 0.686769 6.4667 0.608712 6.64853C0.588308 6.69605 0.611294 6.75017 0.658233 6.77189L1.35425 7.09401C1.40626 7.11809 1.46736 7.09327 1.49411 7.04258C1.5611 6.91569 1.65319 6.81023 1.77058 6.72635C1.92114 6.62223 2.09366 6.57029 2.28804 6.57029C2.49219 6.57029 2.65242 6.62001 2.76904 6.71942C2.89054 6.81884 2.95132 6.94181 2.95132 7.08859V7.19231V7.97545V8.09737C2.95132 8.25366 2.91244 8.39791 2.83471 8.53046C2.76188 8.65831 2.65754 8.76014 2.52139 8.83588C2.38535 8.91157 2.22734 8.94963 2.04757 8.94963C1.91153 8.94963 1.79735 8.91627 1.70503 8.84999C1.61277 8.78372 1.56675 8.69146 1.56675 8.57304C1.56675 8.44519 1.60805 8.34822 1.69049 8.28194C1.77313 8.21096 1.89202 8.16124 2.04757 8.1328L2.95132 7.97545V7.19231L1.85092 7.36582C1.5351 7.41308 1.2702 7.49367 1.05641 7.60732C0.847497 7.72085 0.691933 7.86298 0.589898 8.03342C0.487822 8.19911 0.43689 8.39084 0.43689 8.60862C0.43689 8.84061 0.492941 9.04172 0.604631 9.21216C0.716321 9.37786 0.876755 9.50569 1.08569 9.59565C1.29463 9.68566 1.5424 9.73068 1.82907 9.73068C2.04288 9.73068 2.23722 9.70224 2.41214 9.64538C2.58704 9.59321 2.74494 9.51283 2.88584 9.40388C2.93971 9.3604 3.0243 9.3958 3.0243 9.46503V9.54547C3.0243 9.6007 3.06907 9.64547 3.1243 9.64547H3.94467C3.9999 9.64547 4.04467 9.6007 4.04467 9.54547V7.08893C4.04467 6.8096 3.97182 6.5659 3.82599 6.3576C3.68504 6.14455 3.48583 5.97879 3.22831 5.86043C2.97079 5.74199 2.67436 5.68242 2.3391 5.68242Z" fill="#CFCFCF"/>
</svg>
